ply
format ascii 1.0
Created by Open Asset Import Library - http://assimp.sf.net (v3.0.1262)
element vertex 618
property float x
property float y
property float z
property float nx
property float ny
property float nz
element face 206
property list uint uint vertex_indices
end_header
-0.602047 0.173187 -0.0692793 -0.920923 -0.386669 -0.0488622
-0.571828 0.0973146 -0.0384177 -0.920923 -0.386669 -0.0488622
-0.609211 0.172186 0.0736651 -0.920923 -0.386669 -0.0488622
-0.602047 0.173187 -0.0692793 -0.707221 0.216092 -0.673159
-0.468811 0.226388 -0.19218 -0.707221 0.216092 -0.673159
-0.505928 0.117303 -0.188202 -0.707221 0.216092 -0.673159
-0.571828 0.0973146 -0.0384177 -0.48448 -0.874744 0.0101217
-0.518753 0.067584 -0.0673602 -0.48448 -0.874744 0.0101217
-0.568057 0.0964296 0.0655788 -0.48448 -0.874744 0.0101217
-0.557788 0.27868 0.091146 -0.900369 0.435122 -0.00217817
-0.554354 0.284962 -0.0733403 -0.900369 0.435122 -0.00217817
-0.609211 0.172186 0.0736651 -0.900369 0.435122 -0.00217817
-0.554354 0.284962 -0.0733403 -0.611372 0.440683 -0.657285
-0.283506 0.409665 -0.24166 -0.611372 0.440683 -0.657285
-0.468811 0.226388 -0.19218 -0.611372 0.440683 -0.657285
-0.518753 0.067584 -0.0673602 -0.224951 -0.799099 -0.557528
-0.361891 0.0460457 -0.0997799 -0.224951 -0.799099 -0.557528
-0.450829 0.031429 -0.0429455 -0.224951 -0.799099 -0.557528
-0.505928 0.117303 -0.188202 0.20858 -0.567113 -0.796792
-0.299421 0.124387 -0.139186 0.20858 -0.567113 -0.796792
-0.361891 0.0460457 -0.0997799 0.20858 -0.567113 -0.796792
-0.500158 0.1159 0.172482 -0.633662 0.115293 0.764971
-0.472694 0.22255 0.179158 -0.633662 0.115293 0.764971
-0.609211 0.172186 0.0736651 -0.633662 0.115293 0.764971
-0.490266 0.0573339 0.0886448 -0.158734 -0.818085 0.552758
-0.360404 0.0460064 0.109172 -0.158734 -0.818085 0.552758
-0.500158 0.1159 0.172482 -0.158734 -0.818085 0.552758
-0.472694 0.22255 0.179158 0.00674571 -0.243055 0.969989
-0.235093 0.127527 0.153695 0.00674571 -0.243055 0.969989
-0.283372 0.404776 0.223503 0.00674571 -0.243055 0.969989
-0.468811 0.226388 -0.19218 -0.312001 -0.791312 -0.525815
-0.234299 0.132859 -0.190576 -0.312001 -0.791312 -0.525815
-0.299421 0.124387 -0.139186 -0.312001 -0.791312 -0.525815
-0.450829 0.031429 -0.0429455 -0.500165 -0.865687 0.0205225
-0.446751 0.031644 0.0655189 -0.500165 -0.865687 0.0205225
-0.490266 0.0573339 0.0886448 -0.500165 -0.865687 0.0205225
-0.421718 -0.791161 -0.145602 -0.946737 -0.322009 0
-0.379202 -0.916161 -0.241094 -0.946737 -0.322009 0
-0.379202 -0.916161 0.258906 -0.946737 -0.322009 0
-0.379202 -0.916161 0.258906 -0.473368 -0.322009 0.819898
0.0538103 -0.916161 0.508906 -0.473368 -0.322009 0.819898
-0.317762 -0.791161 0.343471 -0.473368 -0.322009 0.819898
-0.361891 0.0460457 -0.0997799 0.796259 -0.604928 -0.00578228
-0.303269 0.121117 0.119241 0.796259 -0.604928 -0.00578228
-0.360404 0.0460064 0.109172 0.796259 -0.604928 -0.00578228
-0.317762 -0.791161 0.343471 -0.218729 0.70639 0.67318
0.157766 -0.791161 0.49798 -0.218729 0.70639 0.67318
-0.136709 -0.666161 0.271133 -0.218729 0.70639 0.67318
-0.299421 0.124387 -0.139186 0.099169 -0.995009 -0.0111155
-0.235093 0.127527 0.153695 0.099169 -0.995009 -0.0111155
-0.303269 0.121117 0.119241 0.099169 -0.995009 -0.0111155
-0.283506 0.409665 -0.24166 0.04578 -0.173418 -0.983784
-0.118548 0.131657 -0.184978 0.04578 -0.173418 -0.983784
-0.234299 0.132859 -0.190576 0.04578 -0.173418 -0.983784
-0.283372 0.404776 0.223503 -0.546515 0.687653 0.477969
-0.221585 0.556025 0.0765489 -0.546515 0.687653 0.477969
-0.557788 0.27868 0.091146 -0.546515 0.687653 0.477969
-0.280569 -0.274841 0.189056 -0.987058 0.160329 -0.00348676
-0.278653 -0.270892 -0.171549 -0.987058 0.160329 -0.00348676
-0.318907 -0.512154 0.130009 -0.987058 0.160329 -0.00348676
-0.278653 -0.270892 -0.171549 -0.354066 0.245384 -0.902454
0.136038 -0.334569 -0.351562 -0.354066 0.245384 -0.902454
-0.237427 -0.512154 -0.253325 -0.354066 0.245384 -0.902454
-0.268544 -0.666161 -0.0249748 -0.577186 -0.775124 0.25698
-0.136709 -0.666161 0.271133 -0.577186 -0.775124 0.25698
-0.335941 -0.591161 0.0498706 -0.577186 -0.775124 0.25698
-0.268544 -0.666161 -0.0249748 -0.436879 0.841657 -0.317411
-0.0780253 -0.666161 -0.287201 -0.436879 0.841657 -0.317411
-0.421718 -0.791161 -0.145602 -0.436879 0.841657 -0.317411
-0.237427 -0.512154 -0.253325 -0.841737 -0.388625 -0.374765
-0.176542 -0.591161 -0.308146 -0.841737 -0.388625 -0.374765
-0.335941 -0.591161 0.0498706 -0.841737 -0.388625 -0.374765
-0.234299 0.132859 -0.190576 0.0244072 -0.999583 -0.0154254
-0.11598 0.130542 0.146755 0.0244072 -0.999583 -0.0154254
-0.235093 0.127527 0.153695 0.0244072 -0.999583 -0.0154254
-0.221585 0.556025 0.0765489 -0.630452 0.776218 -0.00406228
-0.213155 0.562035 -0.08338 -0.630452 0.776218 -0.00406228
-0.554354 0.284962 -0.0733403 -0.630452 0.776218 -0.00406228
-0.221585 0.556025 0.0765489 -0.115364 0.177498 0.977336
0.00893134 0.673599 0.0824057 -0.115364 0.177498 0.977336
-0.186891 0.702313 0.0540761 -0.115364 0.177498 0.977336
-0.213155 0.562035 -0.08338 -0.28007 0.750771 -0.598251
0.0252772 0.485963 -0.290467 -0.28007 0.750771 -0.598251
-0.283506 0.409665 -0.24166 -0.28007 0.750771 -0.598251
-0.186891 0.702313 0.0540761 -0.376318 0.926353 0.0159718
0.0640208 0.804145 0.0597448 -0.376318 0.926353 0.0159718
-0.180497 0.706599 -0.0438288 -0.376318 0.926353 0.0159718
-0.180497 0.706599 -0.0438288 -0.22885 0.301719 -0.925523
0.0646414 0.804429 -0.0725507 -0.22885 0.301719 -0.925523
0.00948648 0.673853 -0.10148 -0.22885 0.301719 -0.925523
-0.176542 -0.591161 -0.308146 -0.0965437 -0.383334 -0.91855
0.21321 -0.591161 -0.349111 -0.0965437 -0.383334 -0.91855
-0.0780253 -0.666161 -0.287201 -0.0965437 -0.383334 -0.91855
-0.136709 -0.666161 0.271133 -0.0660421 -0.775124 0.628348
0.185646 -0.666161 0.305013 -0.0660421 -0.775124 0.628348
-0.105589 -0.591161 0.366923 -0.0660421 -0.775124 0.628348
-0.11598 0.130542 0.146755 -0.0719555 -0.309298 0.948239
0.0177954 0.482922 0.271846 -0.0719555 -0.309298 0.948239
-0.283372 0.404776 0.223503 -0.0719555 -0.309298 0.948239
-0.105589 -0.591161 0.366923 -0.532603 0.533129 0.657349
-0.0164645 -0.520603 0.38191 -0.532603 0.533129 0.657349
-0.318907 -0.512154 0.130009 -0.532603 0.533129 0.657349
-0.0780253 -0.666161 -0.287201 0.0564467 0.841657 -0.537054
0.244329 -0.666161 -0.253321 0.0564467 0.841657 -0.537054
-0.0501456 -0.791161 -0.480168 0.0564467 0.841657 -0.537054
-0.0501456 -0.791161 -0.480168 -0.473369 -0.322008 -0.819898
0.0538102 -0.916161 -0.491094 -0.473369 -0.322008 -0.819898
-0.379202 -0.916161 -0.241094 -0.473369 -0.322008 -0.819898
-0.0164645 -0.520603 0.38191 -0.31232 0.355628 0.8809
0.133233 -0.333019 0.359254 -0.31232 0.355628 0.8809
-0.280569 -0.274841 0.189056 -0.31232 0.355628 0.8809
0.00948648 0.673853 -0.10148 -0.95717 0.161355 -0.240394
0.0467623 0.700371 -0.232101 -0.95717 0.161355 -0.240394
0.0252772 0.485963 -0.290467 -0.95717 0.161355 -0.240394
0.0143153 0.150229 -0.162449 0.139483 -0.990204 -0.00633714
0.0151722 0.148559 0.117282 0.139483 -0.990204 -0.00633714
-0.118548 0.131657 -0.184978 0.139483 -0.990204 -0.00633714
0.0143153 0.150229 -0.162449 0.0261724 -0.355569 -0.934284
0.159975 0.477468 -0.282909 0.0261724 -0.355569 -0.934284
0.11033 0.178768 -0.170621 0.0261724 -0.355569 -0.934284
0.0151722 0.148559 0.117282 0.0518394 -0.419372 0.906333
0.159196 0.486087 0.265223 0.0518394 -0.419372 0.906333
0.0177954 0.482922 0.271846 0.0518394 -0.419372 0.906333
0.0177954 0.482922 0.271846 -0.966566 0.15671 0.202959
0.040808 0.697951 0.215412 -0.966566 0.15671 0.202959
0.00893134 0.673599 0.0824057 -0.966566 0.15671 0.202959
0.040808 0.697951 0.215412 0.0397278 0.249673 0.967515
0.159196 0.486087 0.265223 0.0397278 0.249673 0.967515
0.153341 0.70047 0.210141 0.0397278 0.249673 0.967515
0.0418718 0.752432 0.154801 0.174679 0.625407 -0.760495
0.149289 0.653203 0.0978715 0.174679 0.625407 -0.760495
0.00893134 0.673599 0.0824057 0.174679 0.625407 -0.760495
0.0428722 0.75289 -0.176549 0.0840894 0.72703 -0.681437
0.153961 0.69361 -0.226086 0.0840894 0.72703 -0.681437
0.0467623 0.700371 -0.232101 0.0840894 0.72703 -0.681437
0.0538102 -0.916161 0.00890603 0 -1 0
0.486823 -0.916161 -0.241094 0 -1 0
0.486823 -0.916161 0.258906 0 -1 0
0.0640208 0.804145 0.0597448 0.143744 0.989615 0.000878266
0.220927 0.781344 0.0708715 0.143744 0.989615 0.000878266
0.219143 0.781732 -0.074121 0.143744 0.989615 0.000878266
0.0646414 0.804429 -0.0725507 0.0213913 0.213193 -0.976776
0.219143 0.781732 -0.074121 0.0213913 0.213193 -0.976776
0.147692 0.65355 -0.103663 0.0213913 0.213193 -0.976776
0.0680781 0.147867 0.12238 -0.989852 0.00844525 -0.14185
0.11033 0.178768 -0.170621 -0.989852 0.00844525 -0.14185
0.109762 0.122069 -0.17003 -0.989852 0.00844525 -0.14185
0.0680781 0.147867 0.12238 0.119419 -0.413409 0.902681
0.292342 0.459104 0.235251 0.119419 -0.413409 0.902681
0.159196 0.486087 0.265223 0.119419 -0.413409 0.902681
0.0692148 0.117053 0.12452 -0.708433 0.700569 -0.0855903
0.109762 0.122069 -0.17003 -0.708433 0.700569 -0.0855903
-0.278653 -0.270892 -0.171549 -0.708433 0.700569 -0.0855903
0.0692148 0.117053 0.12452 -0.355466 0.051692 0.933259
0.357396 0.0647856 0.237179 -0.355466 0.051692 0.933259
0.0680781 0.147867 0.12238 -0.355466 0.051692 0.933259
0.109762 0.122069 -0.17003 -0.202456 0.351688 -0.913962
0.35789 0.064866 -0.247005 -0.202456 0.351688 -0.913962
0.136038 -0.334569 -0.351562 -0.202456 0.351688 -0.913962
0.13529 -0.512154 -0.374428 0.616534 0.388625 -0.684731
0.426528 -0.512154 -0.112197 0.616534 0.388625 -0.684731
0.21321 -0.591161 -0.349111 0.616534 0.388625 -0.684731
0.136038 -0.334569 -0.351562 0.721328 0.0854614 -0.687301
0.3762 -0.365841 -0.103398 0.721328 0.0854614 -0.687301
0.13529 -0.512154 -0.374428 0.721328 0.0854614 -0.687301
0.147692 0.65355 -0.103663 -0.151883 0.475499 0.866506
0.179848 0.753853 -0.153068 -0.151883 0.475499 0.866506
0.0428722 0.75289 -0.176549 -0.151883 0.475499 0.866506
0.147692 0.65355 -0.103663 0.561186 0.722903 -0.40309
0.382777 0.474894 -0.096778 0.561186 0.722903 -0.40309
0.292599 0.459557 -0.249832 0.561186 0.722903 -0.40309
0.149289 0.653203 0.0978715 0.921539 -0.368641 0.121941
0.18226 0.753329 0.151387 0.921539 -0.368641 0.121941
0.153341 0.70047 0.210141 0.921539 -0.368641 0.121941
0.149289 0.653203 0.0978715 0.103968 0.149072 0.983346
0.480195 0.580042 0.0739762 0.103968 0.149072 0.983346
0.220927 0.781344 0.0708715 0.103968 0.149072 0.983346
0.153961 0.69361 -0.226086 0.0702156 0.255456 -0.964268
0.159975 0.477468 -0.282909 0.0702156 0.255456 -0.964268
0.0252772 0.485963 -0.290467 0.0702156 0.255456 -0.964268
0.159196 0.486087 0.265223 0.481269 0.634349 0.604964
0.381211 0.473133 0.102187 0.481269 0.634349 0.604964
0.149289 0.653203 0.0978715 0.481269 0.634349 0.604964
0.185646 -0.666161 0.305013 0.436879 0.841657 0.317412
0.529339 -0.791161 0.163414 0.436879 0.841657 0.317412
0.376165 -0.666161 0.0427868 0.436879 0.841657 0.317412
0.21321 -0.591161 -0.349111 0.747216 -0.383333 -0.542884
0.443561 -0.591161 -0.0320586 0.747216 -0.383333 -0.542884
0.244329 -0.666161 -0.253321 0.747216 -0.383333 -0.542884
0.284162 -0.591161 0.325958 0.258729 0.408108 0.875504
0.345047 -0.512154 0.271137 0.258729 0.408108 0.875504
-0.0164645 -0.520603 0.38191 0.258729 0.408108 0.875504
0.292342 0.459104 0.235251 0.806667 0.191919 0.558977
0.476125 0.137022 0.080616 0.806667 0.191919 0.558977
0.381211 0.473133 0.102187 0.806667 0.191919 0.558977
0.292599 0.459557 -0.249832 0.797358 0.127678 -0.589846
0.476089 0.136238 -0.0717733 0.797358 0.127678 -0.589846
0.35789 0.064866 -0.247005 0.797358 0.127678 -0.589846
0.345047 -0.512154 0.271137 0.653404 0.487879 0.578824
0.375408 -0.3637 0.111736 0.653404 0.487879 0.578824
0.133233 -0.333019 0.359254 0.653404 0.487879 0.578824
0.345047 -0.512154 0.271137 0.901261 0.388625 0.191569
0.443561 -0.591161 -0.0320586 0.901261 0.388625 0.191569
0.426528 -0.512154 -0.112197 0.901261 0.388625 0.191569
0.375408 -0.3637 0.111736 0.945628 0.325251 0.000246517
0.426528 -0.512154 -0.112197 0.945628 0.325251 0.000246517
0.3762 -0.365841 -0.103398 0.945628 0.325251 0.000246517
0.375408 -0.3637 0.111736 0.817964 -0.129695 0.560458
0.476125 0.137022 0.080616 0.817964 -0.129695 0.560458
0.357396 0.0647856 0.237179 0.817964 -0.129695 0.560458
0.376165 -0.666161 0.0427868 0.493326 0.841657 -0.219643
0.425383 -0.791161 -0.325659 0.493326 0.841657 -0.219643
0.244329 -0.666161 -0.253321 0.493326 0.841657 -0.219643
0.376165 -0.666161 0.0427868 0.84376 -0.383332 0.375666
0.443561 -0.591161 -0.0320586 0.84376 -0.383332 0.375666
0.284162 -0.591161 0.325958 0.84376 -0.383332 0.375666
0.3762 -0.365841 -0.103398 0.0761866 -0.996968 0.0158492
0.474594 -0.357853 -0.0739305 0.0761866 -0.996968 0.0158492
0.473708 -0.35546 0.0808462 0.0761866 -0.996968 0.0158492
0.425383 -0.791161 -0.325659 0.473368 -0.322009 -0.819898
0.486823 -0.916161 -0.241094 0.473368 -0.322009 -0.819898
0.0538102 -0.916161 -0.491094 0.473368 -0.322009 -0.819898
0.473708 -0.35546 0.0808462 0.197474 -0.000510711 0.980308
0.5863 0.204301 0.0584572 0.197474 -0.000510711 0.980308
0.476125 0.137022 0.080616 0.197474 -0.000510711 0.980308
0.476089 0.136238 -0.0717733 0.181546 0.00374396 -0.983375
0.58626 0.203425 -0.0511782 0.181546 0.00374396 -0.983375
0.474594 -0.357853 -0.0739305 0.181546 0.00374396 -0.983375
0.480195 0.580042 0.0739762 0.962335 0.271856 -0.00251732
0.5863 0.204301 0.0584572 0.962335 0.271856 -0.00251732
0.58626 0.203425 -0.0511782 0.962335 0.271856 -0.00251732
0.481946 0.582011 -0.0691676 0.246228 0.021802 -0.968967
0.58626 0.203425 -0.0511782 0.246228 0.021802 -0.968967
0.382777 0.474894 -0.096778 0.246228 0.021802 -0.968967
0.486823 -0.916161 0.258906 0.633491 0.322008 0.703563
0.529339 -0.791161 0.163414 0.633491 0.322008 0.703563
0.157766 -0.791161 0.49798 0.633491 0.322008 0.703563
-0.609211 0.172186 0.0736651 -0.919473 0.390757 -0.0433422
-0.554354 0.284962 -0.0733403 -0.919473 0.390757 -0.0433422
-0.602047 0.173187 -0.0692793 -0.919473 0.390757 -0.0433422
-0.602047 0.173187 -0.0692793 -0.740661 -0.590035 -0.321372
-0.505928 0.117303 -0.188202 -0.740661 -0.590035 -0.321372
-0.518753 0.067584 -0.0673602 -0.740661 -0.590035 -0.321372
-0.571828 0.0973146 -0.0384177 -0.877131 -0.479451 0.0277221
-0.568057 0.0964296 0.0655788 -0.877131 -0.479451 0.0277221
-0.609211 0.172186 0.0736651 -0.877131 -0.479451 0.0277221
-0.568057 0.0964296 0.0655788 -0.503913 -0.734876 0.453904
-0.490266 0.0573339 0.0886448 -0.503913 -0.734876 0.453904
-0.500158 0.1159 0.172482 -0.503913 -0.734876 0.453904
-0.557788 0.27868 0.091146 -0.63585 0.771643 0.0161959
-0.221585 0.556025 0.0765489 -0.63585 0.771643 0.0161959
-0.554354 0.284962 -0.0733403 -0.63585 0.771643 0.0161959
-0.554354 0.284962 -0.0733403 -0.580661 0.699985 -0.415757
-0.213155 0.562035 -0.08338 -0.580661 0.699985 -0.415757
-0.283506 0.409665 -0.24166 -0.580661 0.699985 -0.415757
-0.518753 0.067584 -0.0673602 -0.477929 -0.8779 0.0295908
-0.450829 0.031429 -0.0429455 -0.477929 -0.8779 0.0295908
-0.490266 0.0573339 0.0886448 -0.477929 -0.8779 0.0295908
-0.472694 0.22255 0.179158 -0.536553 0.373275 0.75682
-0.283372 0.404776 0.223503 -0.536553 0.373275 0.75682
-0.557788 0.27868 0.091146 -0.536553 0.373275 0.75682
-0.468811 0.226388 -0.19218 0.233141 -0.114539 -0.965674
-0.299421 0.124387 -0.139186 0.233141 -0.114539 -0.965674
-0.505928 0.117303 -0.188202 0.233141 -0.114539 -0.965674
-0.446751 0.031644 0.0655189 -0.161489 -0.797199 0.581718
-0.360404 0.0460064 0.109172 -0.161489 -0.797199 0.581718
-0.490266 0.0573339 0.0886448 -0.161489 -0.797199 0.581718
-0.421718 -0.791161 -0.145602 -0.633491 0.322008 -0.703563
-0.0501456 -0.791161 -0.480168 -0.633491 0.322008 -0.703563
-0.379202 -0.916161 -0.241094 -0.633491 0.322008 -0.703563
-0.379202 -0.916161 0.258906 -0.926048 0.322008 0.196838
-0.317762 -0.791161 0.343471 -0.926048 0.322008 0.196838
-0.421718 -0.791161 -0.145602 -0.926048 0.322008 0.196838
-0.379202 -0.916161 -0.241094 0 -1 0
0.0538102 -0.916161 -0.491094 0 -1 0
0.0538102 -0.916161 0.00890603 0 -1 0
-0.361891 0.0460457 -0.0997799 0.161342 -0.986898 -0.00133437
-0.360404 0.0460064 0.109172 0.161342 -0.986898 -0.00133437
-0.450829 0.031429 -0.0429455 0.161342 -0.986898 -0.00133437
-0.361891 0.0460457 -0.0997799 0.782774 -0.622295 0.00377992
-0.299421 0.124387 -0.139186 0.782774 -0.622295 0.00377992
-0.303269 0.121117 0.119241 0.782774 -0.622295 0.00377992
-0.360404 0.0460064 0.109172 0.255408 -0.316744 0.913477
-0.303269 0.121117 0.119241 0.255408 -0.316744 0.913477
-0.500158 0.1159 0.172482 0.255408 -0.316744 0.913477
-0.318907 -0.512154 0.130009 -0.901261 0.388625 -0.191569
-0.237427 -0.512154 -0.253325 -0.901261 0.388625 -0.191569
-0.335941 -0.591161 0.0498706 -0.901261 0.388625 -0.191569
-0.318907 -0.512154 0.130009 -0.638992 -0.0869327 0.764285
-0.0164645 -0.520603 0.38191 -0.638992 -0.0869327 0.764285
-0.280569 -0.274841 0.189056 -0.638992 -0.0869327 0.764285
-0.317762 -0.791161 0.343471 -0.493326 0.841657 0.219643
-0.136709 -0.666161 0.271133 -0.493326 0.841657 0.219643
-0.268544 -0.666161 -0.0249748 -0.493326 0.841657 0.219643
-0.303269 0.121117 0.119241 -0.237087 -0.756238 0.609831
-0.235093 0.127527 0.153695 -0.237087 -0.756238 0.609831
-0.472694 0.22255 0.179158 -0.237087 -0.756238 0.609831
-0.299421 0.124387 -0.139186 0.117254 -0.992987 -0.0151092
-0.234299 0.132859 -0.190576 0.117254 -0.992987 -0.0151092
-0.235093 0.127527 0.153695 0.117254 -0.992987 -0.0151092
-0.283506 0.409665 -0.24166 -0.0703256 -0.193111 -0.978653
-0.234299 0.132859 -0.190576 -0.0703256 -0.193111 -0.978653
-0.468811 0.226388 -0.19218 -0.0703256 -0.193111 -0.978653
-0.283506 0.409665 -0.24166 -0.0905261 -0.250251 -0.96394
0.0252772 0.485963 -0.290467 -0.0905261 -0.250251 -0.96394
-0.118548 0.131657 -0.184978 -0.0905261 -0.250251 -0.96394
-0.280569 -0.274841 0.189056 -0.745775 0.666189 0.00333427
0.0692148 0.117053 0.12452 -0.745775 0.666189 0.00333427
-0.278653 -0.270892 -0.171549 -0.745775 0.666189 0.00333427
-0.237427 -0.512154 -0.253325 -0.306677 0.122823 -0.943856
0.136038 -0.334569 -0.351562 -0.306677 0.122823 -0.943856
0.13529 -0.512154 -0.374428 -0.306677 0.122823 -0.943856
-0.235093 0.127527 0.153695 0.0624481 -0.233449 0.970362
-0.11598 0.130542 0.146755 0.0624481 -0.233449 0.970362
-0.283372 0.404776 0.223503 0.0624481 -0.233449 0.970362
-0.221585 0.556025 0.0765489 -0.349681 0.652076 0.672696
0.0177954 0.482922 0.271846 -0.349681 0.652076 0.672696
0.00893134 0.673599 0.0824057 -0.349681 0.652076 0.672696
-0.186891 0.702313 0.0540761 -0.973425 0.222588 -0.0538305
-0.180497 0.706599 -0.0438288 -0.973425 0.222588 -0.0538305
-0.221585 0.556025 0.0765489 -0.973425 0.222588 -0.0538305
-0.180497 0.706599 -0.0438288 -0.228136 0.304546 -0.924774
0.00948648 0.673853 -0.10148 -0.228136 0.304546 -0.924774
-0.213155 0.562035 -0.08338 -0.228136 0.304546 -0.924774
-0.176542 -0.591161 -0.308146 -0.511144 -0.775124 -0.371368
-0.0780253 -0.666161 -0.287201 -0.511144 -0.775124 -0.371368
-0.268544 -0.666161 -0.0249748 -0.511144 -0.775124 -0.371368
-0.136709 -0.666161 0.271133 -0.747216 -0.383332 0.542885
-0.105589 -0.591161 0.366923 -0.747216 -0.383332 0.542885
-0.335941 -0.591161 0.0498706 -0.747216 -0.383332 0.542885
-0.118548 0.131657 -0.184978 0.135129 -0.990818 -0.00437683
0.0151722 0.148559 0.117282 0.135129 -0.990818 -0.00437683
-0.11598 0.130542 0.146755 0.135129 -0.990818 -0.00437683
-0.105589 -0.591161 0.366923 0.0988656 -0.32468 0.940643
0.284162 -0.591161 0.325958 0.0988656 -0.32468 0.940643
-0.0164645 -0.520603 0.38191 0.0988656 -0.32468 0.940643
-0.0164645 -0.520603 0.38191 0.293421 -0.119608 0.948471
0.345047 -0.512154 0.271137 0.293421 -0.119608 0.948471
0.133233 -0.333019 0.359254 0.293421 -0.119608 0.948471
0.00893134 0.673599 0.0824057 -0.108972 0.214473 0.970632
0.0640208 0.804145 0.0597448 -0.108972 0.214473 0.970632
-0.186891 0.702313 0.0540761 -0.108972 0.214473 0.970632
0.0143153 0.150229 -0.162449 0.279646 -0.958181 -0.0607272
0.11033 0.178768 -0.170621 0.279646 -0.958181 -0.0607272
0.0680781 0.147867 0.12238 0.279646 -0.958181 -0.0607272
0.0177954 0.482922 0.271846 0.0397274 0.249673 0.967515
0.159196 0.486087 0.265223 0.0397278 0.249673 0.967515
0.040808 0.697951 0.215412 0.0397278 0.249673 0.967515
0.0252772 0.485963 -0.290467 0.0298721 -0.356977 -0.933635
0.159975 0.477468 -0.282909 0.0298721 -0.356977 -0.933635
0.0143153 0.150229 -0.162449 0.0298721 -0.356977 -0.933635
0.040808 0.697951 0.215412 -0.955643 0.227184 0.187439
0.0418718 0.752432 0.154801 -0.955643 0.227184 0.187439
0.00893134 0.673599 0.0824057 -0.955643 0.227184 0.187439
0.0418718 0.752432 0.154801 -0.0244116 0.477479 -0.878304
0.18226 0.753329 0.151387 -0.0244116 0.477479 -0.878304
0.149289 0.653203 0.0978715 -0.0244116 0.477479 -0.878304
0.0428722 0.75289 -0.176549 -0.95506 0.179091 -0.236191
0.0467623 0.700371 -0.232101 -0.95506 0.179091 -0.236191
0.00948648 0.673853 -0.10148 -0.95506 0.179091 -0.236191
0.0467623 0.700371 -0.232101 0.0702171 0.255455 -0.964268
0.153961 0.69361 -0.226086 0.0702156 0.255456 -0.964268
0.0252772 0.485963 -0.290467 0.0702156 0.255456 -0.964268
0.0538102 -0.916161 0.00890603 0 -1 0
0.486823 -0.916161 0.258906 0 -1 0
0.0538103 -0.916161 0.508906 0 -1 -3.7137e-16
0.0538103 -0.916161 0.508906 -0.292558 0.322008 0.9004
0.157766 -0.791161 0.49798 -0.292558 0.322008 0.9004
-0.317762 -0.791161 0.343471 -0.292558 0.322008 0.9004
0.0640208 0.804145 0.0597448 0.145372 0.989373 0.00280545
0.219143 0.781732 -0.074121 0.145372 0.989373 0.00280545
0.0646414 0.804429 -0.0725507 0.145372 0.989373 0.00280545
0.0646414 0.804429 -0.0725507 0.0154211 0.21007 -0.977565
0.147692 0.65355 -0.103663 0.0154211 0.21007 -0.977565
0.00948648 0.673853 -0.10148 0.0154211 0.21007 -0.977565
0.0680781 0.147867 0.12238 -0.989502 -0.0460125 -0.136995
0.109762 0.122069 -0.17003 -0.989502 -0.0460125 -0.136995
0.0692148 0.117053 0.12452 -0.989502 -0.0460125 -0.136995
0.0680781 0.147867 0.12238 -0.0939975 -0.365744 0.925957
0.159196 0.486087 0.265223 -0.0939975 -0.365744 0.925957
0.0151722 0.148559 0.117282 -0.0939975 -0.365744 0.925957
0.0680781 0.147867 0.12238 -0.382685 -0.0586256 0.922017
0.357396 0.0647856 0.237179 -0.382685 -0.0586256 0.922017
0.292342 0.459104 0.235251 -0.382685 -0.0586256 0.922017
0.109762 0.122069 -0.17003 -0.332286 0.331856 -0.882869
0.136038 -0.334569 -0.351562 -0.332286 0.331856 -0.882869
-0.278653 -0.270892 -0.171549 -0.332286 0.331856 -0.882869
0.133233 -0.333019 0.359254 -0.264632 0.416089 0.869965
0.357396 0.0647856 0.237179 -0.264632 0.416089 0.869965
0.0692148 0.117053 0.12452 -0.264632 0.416089 0.869965
0.13529 -0.512154 -0.374428 -0.0963123 -0.388625 -0.916349
0.21321 -0.591161 -0.349111 -0.0963123 -0.388625 -0.916349
-0.176542 -0.591161 -0.308146 -0.0963123 -0.388625 -0.916349
0.147692 0.65355 -0.103663 0.26067 0.697583 -0.667405
0.292599 0.459557 -0.249832 0.26067 0.697583 -0.667405
0.159975 0.477468 -0.282909 0.26067 0.697583 -0.667405
0.147692 0.65355 -0.103663 0.129873 0.133028 -0.982566
0.481946 0.582011 -0.0691676 0.129873 0.133028 -0.982566
0.382777 0.474894 -0.096778 0.129873 0.133028 -0.982566
0.149289 0.653203 0.0978715 -0.0362824 0.225424 0.973585
0.220927 0.781344 0.0708715 -0.0362824 0.225424 0.973585
0.0640208 0.804145 0.0597448 -0.0362824 0.225424 0.973585
0.153341 0.70047 0.210141 0.998947 0.0162613 -0.0429011
0.159196 0.486087 0.265223 0.998947 0.0162613 -0.0429011
0.149289 0.653203 0.0978715 0.998947 0.0162613 -0.0429011
0.153961 0.69361 -0.226086 0.941516 -0.331533 -0.0602767
0.179848 0.753853 -0.153068 0.941516 -0.331533 -0.0602767
0.147692 0.65355 -0.103663 0.941516 -0.331533 -0.0602767
0.157766 -0.791161 0.49798 -0.0564467 0.841657 0.537054
0.185646 -0.666161 0.305013 -0.0564467 0.841657 0.537054
-0.136709 -0.666161 0.271133 -0.0564467 0.841657 0.537054
0.185646 -0.666161 0.305013 0.511145 -0.775124 0.371368
0.376165 -0.666161 0.0427868 0.511145 -0.775124 0.371368
0.284162 -0.591161 0.325958 0.511145 -0.775124 0.371368
0.21321 -0.591161 -0.349111 0.066042 -0.775124 -0.628348
0.244329 -0.666161 -0.253321 0.066042 -0.775124 -0.628348
-0.0780253 -0.666161 -0.287201 0.066042 -0.775124 -0.628348
0.220927 0.781344 0.0708715 0.60512 0.796116 -0.00531869
0.481946 0.582011 -0.0691676 0.60512 0.796116 -0.00531869
0.219143 0.781732 -0.074121 0.60512 0.796116 -0.00531869
0.244329 -0.666161 -0.253321 0.218729 0.706389 -0.67318
0.425383 -0.791161 -0.325659 0.218729 0.706389 -0.67318
-0.0501456 -0.791161 -0.480168 0.218729 0.706389 -0.67318
0.244329 -0.666161 -0.253321 0.577186 -0.775124 -0.25698
0.443561 -0.591161 -0.0320586 0.577186 -0.775124 -0.25698
0.376165 -0.666161 0.0427868 0.577186 -0.775124 -0.25698
0.284162 -0.591161 0.325958 0.841737 -0.388625 0.374766
0.443561 -0.591161 -0.0320586 0.841737 -0.388625 0.374766
0.345047 -0.512154 0.271137 0.841737 -0.388625 0.374766
0.292342 0.459104 0.235251 0.248331 0.931975 0.264111
0.381211 0.473133 0.102187 0.248331 0.931975 0.264111
0.159196 0.486087 0.265223 0.248331 0.931975 0.264111
0.292599 0.459557 -0.249832 -0.319238 -0.0595835 -0.9458
0.35789 0.064866 -0.247005 -0.319238 -0.0595835 -0.9458
0.11033 0.178768 -0.170621 -0.319238 -0.0595835 -0.9458
0.345047 -0.512154 0.271137 0.977884 0.0231927 0.207856
0.426528 -0.512154 -0.112197 0.977884 0.0231927 0.207856
0.375408 -0.3637 0.111736 0.977884 0.0231927 0.207856
0.35789 0.064866 -0.247005 0.690928 -0.202059 -0.694111
0.3762 -0.365841 -0.103398 0.690928 -0.202059 -0.694111
0.136038 -0.334569 -0.351562 0.690928 -0.202059 -0.694111
0.376165 -0.666161 0.0427868 0.692356 0.706389 -0.147165
0.529339 -0.791161 0.163414 0.692356 0.706389 -0.147165
0.425383 -0.791161 -0.325659 0.692356 0.706389 -0.147165
0.3762 -0.365841 -0.103398 0.645204 0.265024 -0.716571
0.426528 -0.512154 -0.112197 0.645204 0.265024 -0.716571
0.13529 -0.512154 -0.374428 0.645204 0.265024 -0.716571
0.3762 -0.365841 -0.103398 0.286648 0.00331518 -0.95803
0.476089 0.136238 -0.0717733 0.286648 0.00331518 -0.95803
0.474594 -0.357853 -0.0739305 0.286648 0.00331518 -0.95803
0.381211 0.473133 0.102187 0.244781 0.0290951 0.969142
0.5863 0.204301 0.0584572 0.244781 0.0290951 0.969142
0.480195 0.580042 0.0739762 0.244781 0.0290951 0.969142
0.382777 0.474894 -0.096778 0.836847 0.19275 -0.512381
0.476089 0.136238 -0.0717733 0.836847 0.19275 -0.512381
0.292599 0.459557 -0.249832 0.836847 0.19275 -0.512381
0.426528 -0.512154 -0.112197 0.745425 -0.388626 -0.541583
0.443561 -0.591161 -0.0320586 0.745425 -0.388626 -0.541583
0.21321 -0.591161 -0.349111 0.745425 -0.388626 -0.541583
0.473708 -0.35546 0.0808462 0.299863 -0.00102539 0.953982
0.476125 0.137022 0.080616 0.299863 -0.00102539 0.953982
0.375408 -0.3637 0.111736 0.299863 -0.00102539 0.953982
0.480195 0.580042 0.0739762 0.963769 0.266288 0.0154524
0.58626 0.203425 -0.0511782 0.963769 0.266288 0.0154524
0.481946 0.582011 -0.0691676 0.963769 0.266288 0.0154524
0.486823 -0.916161 -0.241094 0.946737 -0.322009 0
0.529339 -0.791161 0.163414 0.946737 -0.322009 0
0.486823 -0.916161 0.258906 0.946737 -0.322009 0
0.58626 0.203425 -0.0511782 0.980373 -0.197146 0.00122225
0.5863 0.204301 0.0584572 0.980373 -0.197146 0.00122225
0.473708 -0.35546 0.0808462 0.980373 -0.197146 0.00122225
-0.609211 0.172186 0.0736651 -0.643116 0.188721 0.742149
-0.472694 0.22255 0.179158 -0.643116 0.188721 0.742149
-0.557788 0.27868 0.091146 -0.643116 0.188721 0.742149
-0.602047 0.173187 -0.0692793 -0.613032 -0.494721 -0.61599
-0.518753 0.067584 -0.0673602 -0.613032 -0.494721 -0.61599
-0.571828 0.0973146 -0.0384177 -0.613032 -0.494721 -0.61599
-0.568057 0.0964296 0.0655788 -0.716338 -0.446386 0.536283
-0.500158 0.1159 0.172482 -0.716338 -0.446386 0.536283
-0.609211 0.172186 0.0736651 -0.716338 -0.446386 0.536283
-0.554354 0.284962 -0.0733403 -0.708915 0.278953 -0.647784
-0.468811 0.226388 -0.19218 -0.708915 0.278953 -0.647784
-0.602047 0.173187 -0.0692793 -0.708915 0.278953 -0.647784
-0.518753 0.067584 -0.0673602 -0.454713 -0.8903 0.0245368
-0.490266 0.0573339 0.0886448 -0.454713 -0.8903 0.0245368
-0.568057 0.0964296 0.0655788 -0.454713 -0.8903 0.0245368
-0.505928 0.117303 -0.188202 -0.204033 -0.897521 -0.390931
-0.361891 0.0460457 -0.0997799 -0.204033 -0.897521 -0.390931
-0.518753 0.067584 -0.0673602 -0.204033 -0.897521 -0.390931
-0.500158 0.1159 0.172482 0.262055 -0.127359 0.956612
-0.303269 0.121117 0.119241 0.262055 -0.127359 0.956612
-0.472694 0.22255 0.179158 0.262055 -0.127359 0.956612
-0.450829 0.031429 -0.0429455 0.16619 -0.986084 -0.00429443
-0.360404 0.0460064 0.109172 0.16619 -0.986084 -0.00429443
-0.446751 0.031644 0.0655189 0.16619 -0.986084 -0.00429443
-0.379202 -0.916161 -0.241094 0 -1 0
0.0538102 -0.916161 0.00890603 0 -1 0
-0.379202 -0.916161 0.258906 0 -1 0
-0.335941 -0.591161 0.0498706 -0.84376 -0.383332 -0.375666
-0.176542 -0.591161 -0.308146 -0.84376 -0.383332 -0.375666
-0.268544 -0.666161 -0.0249748 -0.84376 -0.383332 -0.375666
-0.335941 -0.591161 0.0498706 -0.745425 -0.388625 0.541583
-0.105589 -0.591161 0.366923 -0.745425 -0.388625 0.541583
-0.318907 -0.512154 0.130009 -0.745425 -0.388625 0.541583
-0.317762 -0.791161 0.343471 -0.692356 0.706389 0.147165
-0.268544 -0.666161 -0.0249748 -0.692356 0.706389 0.147165
-0.421718 -0.791161 -0.145602 -0.692356 0.706389 0.147165
-0.283372 0.404776 0.223503 -0.288528 0.725238 0.625125
0.0177954 0.482922 0.271846 -0.288528 0.725238 0.625125
-0.221585 0.556025 0.0765489 -0.288528 0.725238 0.625125
-0.280569 -0.274841 0.189056 -0.297684 0.40784 0.863163
0.133233 -0.333019 0.359254 -0.297684 0.40784 0.863163
0.0692148 0.117053 0.12452 -0.297684 0.40784 0.863163
-0.278653 -0.270892 -0.171549 -0.973609 -0.0962243 -0.206947
-0.237427 -0.512154 -0.253325 -0.973609 -0.0962243 -0.206947
-0.318907 -0.512154 0.130009 -0.973609 -0.0962243 -0.206947
-0.237427 -0.512154 -0.253325 -0.284727 0.388625 -0.8763
0.13529 -0.512154 -0.374428 -0.284727 0.388625 -0.8763
-0.176542 -0.591161 -0.308146 -0.284727 0.388625 -0.8763
-0.221585 0.556025 0.0765489 -0.971972 0.231214 -0.0425441
-0.180497 0.706599 -0.0438288 -0.971972 0.231214 -0.0425441
-0.213155 0.562035 -0.08338 -0.971972 0.231214 -0.0425441
-0.118548 0.131657 -0.184978 -0.0102198 -0.999942 -0.00328248
-0.11598 0.130542 0.146755 -0.0102198 -0.999942 -0.00328248
-0.234299 0.132859 -0.190576 -0.0102198 -0.999942 -0.00328248
-0.118548 0.131657 -0.184978 0.204279 -0.354587 -0.912435
0.0252772 0.485963 -0.290467 0.204279 -0.354587 -0.912435
0.0143153 0.150229 -0.162449 0.204279 -0.354587 -0.912435
-0.0780253 -0.666161 -0.287201 -0.473626 0.706389 -0.526015
-0.0501456 -0.791161 -0.480168 -0.473626 0.706389 -0.526015
-0.421718 -0.791161 -0.145602 -0.473626 0.706389 -0.526015
-0.0501456 -0.791161 -0.480168 0.292558 0.322009 -0.9004
0.425383 -0.791161 -0.325659 0.292558 0.322009 -0.9004
0.0538102 -0.916161 -0.491094 0.292558 0.322009 -0.9004
0.00893134 0.673599 0.0824057 -0.0781477 0.202428 0.976174
0.149289 0.653203 0.0978715 -0.0781477 0.202428 0.976174
0.0640208 0.804145 0.0597448 -0.0781477 0.202428 0.976174
0.00948648 0.673853 -0.10148 -0.37636 0.641106 -0.668832
0.0252772 0.485963 -0.290467 -0.37636 0.641106 -0.668832
-0.213155 0.562035 -0.08338 -0.37636 0.641106 -0.668832
0.00948648 0.673853 -0.10148 0.108706 0.660067 0.743299
0.147692 0.65355 -0.103663 0.108706 0.660067 0.743299
0.0428722 0.75289 -0.176549 0.108706 0.660067 0.743299
0.0143153 0.150229 -0.162449 -0.012499 -0.999904 -0.00592947
0.0680781 0.147867 0.12238 -0.012499 -0.999904 -0.00592947
0.0151722 0.148559 0.117282 -0.012499 -0.999904 -0.00592947
0.0151722 0.148559 0.117282 0.253155 -0.407568 0.877383
0.0177954 0.482922 0.271846 0.253155 -0.407568 0.877383
-0.11598 0.130542 0.146755 0.253155 -0.407568 0.877383
0.040808 0.697951 0.215412 0.0146702 0.743499 0.668576
0.153341 0.70047 0.210141 0.0146702 0.743499 0.668576
0.0418718 0.752432 0.154801 0.0146702 0.743499 0.668576
0.0428722 0.75289 -0.176549 0.107033 0.747971 -0.655045
0.179848 0.753853 -0.153068 0.107033 0.747971 -0.655045
0.153961 0.69361 -0.226086 0.107033 0.747971 -0.655045
0.0538102 -0.916161 -0.491094 0 -1 0
0.486823 -0.916161 -0.241094 0 -1 0
0.0538102 -0.916161 0.00890603 0 -1 0
0.0538103 -0.916161 0.508906 0.473369 -0.322008 0.819898
0.486823 -0.916161 0.258906 0.473369 -0.322008 0.819898
0.157766 -0.791161 0.49798 0.473369 -0.322008 0.819898
0.0640208 0.804145 0.0597448 -0.370629 0.928781 0.000254879
0.0646414 0.804429 -0.0725507 -0.370629 0.928781 0.000254879
-0.180497 0.706599 -0.0438288 -0.370629 0.928781 0.000254879
0.11033 0.178768 -0.170621 -0.297752 -0.00697016 -0.954618
0.35789 0.064866 -0.247005 -0.297752 -0.00697016 -0.954618
0.109762 0.122069 -0.17003 -0.297752 -0.00697016 -0.954618
0.133233 -0.333019 0.359254 0.692691 -0.175671 0.699513
0.375408 -0.3637 0.111736 0.692691 -0.175671 0.699513
0.357396 0.0647856 0.237179 0.692691 -0.175671 0.699513
0.147692 0.65355 -0.103663 0.998375 0.0132054 0.0554423
0.159975 0.477468 -0.282909 0.998375 0.0132054 0.0554423
0.153961 0.69361 -0.226086 0.998375 0.0132054 0.0554423
0.157766 -0.791161 0.49798 0.473626 0.706389 0.526015
0.529339 -0.791161 0.163414 0.473626 0.706389 0.526015
0.185646 -0.666161 0.305013 0.473626 0.706389 0.526015
0.159975 0.477468 -0.282909 0.177027 -0.371967 -0.911209
0.292599 0.459557 -0.249832 0.177027 -0.371967 -0.911209
0.11033 0.178768 -0.170621 0.177027 -0.371967 -0.911209
0.185646 -0.666161 0.305013 0.0965437 -0.383332 0.918551
0.284162 -0.591161 0.325958 0.0965437 -0.383332 0.918551
-0.105589 -0.591161 0.366923 0.0965437 -0.383332 0.918551
0.219143 0.781732 -0.074121 0.133467 0.151332 -0.979431
0.481946 0.582011 -0.0691676 0.133467 0.151332 -0.979431
0.147692 0.65355 -0.103663 0.133467 0.151332 -0.979431
0.357396 0.0647856 0.237179 0.760712 0.128612 0.636221
0.476125 0.137022 0.080616 0.760712 0.128612 0.636221
0.292342 0.459104 0.235251 0.760712 0.128612 0.636221
0.35789 0.064866 -0.247005 0.846116 -0.135872 -0.51539
0.476089 0.136238 -0.0717733 0.846116 -0.135872 -0.51539
0.3762 -0.365841 -0.103398 0.846116 -0.135872 -0.51539
0.3762 -0.365841 -0.103398 0.0867194 -0.99618 0.0102305
0.473708 -0.35546 0.0808462 0.0867194 -0.99618 0.0102305
0.375408 -0.3637 0.111736 0.0867194 -0.99618 0.0102305
0.381211 0.473133 0.102187 0.106341 0.160479 0.981294
0.480195 0.580042 0.0739762 0.106341 0.160479 0.981294
0.149289 0.653203 0.0978715 0.106341 0.160479 0.981294
0.382777 0.474894 -0.096778 0.194756 -0.0187458 -0.980673
0.58626 0.203425 -0.0511782 0.194756 -0.0187458 -0.980673
0.476089 0.136238 -0.0717733 0.194756 -0.0187458 -0.980673
0.425383 -0.791161 -0.325659 0.926048 0.322008 -0.196838
0.529339 -0.791161 0.163414 0.926048 0.322008 -0.196838
0.486823 -0.916161 -0.241094 0.926048 0.322008 -0.196838
0.474594 -0.357853 -0.0739305 0.980675 -0.195456 0.00863342
0.58626 0.203425 -0.0511782 0.980675 -0.195456 0.00863342
0.473708 -0.35546 0.0808462 0.980675 -0.195456 0.00863342
0.476125 0.137022 0.080616 0.20079 -0.00616851 0.979615
0.5863 0.204301 0.0584572 0.20079 -0.00616851 0.979615
0.381211 0.473133 0.102187 0.20079 -0.00616851 0.979615
0.480195 0.580042 0.0739762 0.613035 0.789843 0.0183634
0.481946 0.582011 -0.0691676 0.613035 0.789843 0.0183634
0.220927 0.781344 0.0708715 0.613035 0.789843 0.0183634
0.0538102 -0.916161 0.00890603 0 -1 0
0.0538103 -0.916161 0.508906 0 -1 -3.7137e-16
-0.379202 -0.916161 0.258906 0 -1 0
0.153341 0.70047 0.210141 0.0116147 0.74052 0.671933
0.18226 0.753329 0.151387 0.0116147 0.74052 0.671933
0.0418718 0.752432 0.154801 0.0116147 0.74052 0.671933
3 0 1 2
3 3 4 5
3 6 7 8
3 9 10 11
3 12 13 14
3 15 16 17
3 18 19 20
3 21 22 23
3 24 25 26
3 27 28 29
3 30 31 32
3 33 34 35
3 36 37 38
3 39 40 41
3 42 43 44
3 45 46 47
3 48 49 50
3 51 52 53
3 54 55 56
3 57 58 59
3 60 61 62
3 63 64 65
3 66 67 68
3 69 70 71
3 72 73 74
3 75 76 77
3 78 79 80
3 81 82 83
3 84 85 86
3 87 88 89
3 90 91 92
3 93 94 95
3 96 97 98
3 99 100 101
3 102 103 104
3 105 106 107
3 108 109 110
3 111 112 113
3 114 115 116
3 117 118 119
3 120 121 122
3 123 124 125
3 126 127 128
3 129 130 131
3 132 133 134
3 135 136 137
3 138 139 140
3 141 142 143
3 144 145 146
3 147 148 149
3 150 151 152
3 153 154 155
3 156 157 158
3 159 160 161
3 162 163 164
3 165 166 167
3 168 169 170
3 171 172 173
3 174 175 176
3 177 178 179
3 180 181 182
3 183 184 185
3 186 187 188
3 189 190 191
3 192 193 194
3 195 196 197
3 198 199 200
3 201 202 203
3 204 205 206
3 207 208 209
3 210 211 212
3 213 214 215
3 216 217 218
3 219 220 221
3 222 223 224
3 225 226 227
3 228 229 230
3 231 232 233
3 234 235 236
3 237 238 239
3 240 241 242
3 243 244 245
3 246 247 248
3 249 250 251
3 252 253 254
3 255 256 257
3 258 259 260
3 261 262 263
3 264 265 266
3 267 268 269
3 270 271 272
3 273 274 275
3 276 277 278
3 279 280 281
3 282 283 284
3 285 286 287
3 288 289 290
3 291 292 293
3 294 295 296
3 297 298 299
3 300 301 302
3 303 304 305
3 306 307 308
3 309 310 311
3 312 313 314
3 315 316 317
3 318 319 320
3 321 322 323
3 324 325 326
3 327 328 329
3 330 331 332
3 333 334 335
3 336 337 338
3 339 340 341
3 342 343 344
3 345 346 347
3 348 349 350
3 351 352 353
3 354 355 356
3 357 358 359
3 360 361 362
3 363 364 365
3 366 367 368
3 369 370 371
3 372 373 374
3 375 376 377
3 378 379 380
3 381 382 383
3 384 385 386
3 387 388 389
3 390 391 392
3 393 394 395
3 396 397 398
3 399 400 401
3 402 403 404
3 405 406 407
3 408 409 410
3 411 412 413
3 414 415 416
3 417 418 419
3 420 421 422
3 423 424 425
3 426 427 428
3 429 430 431
3 432 433 434
3 435 436 437
3 438 439 440
3 441 442 443
3 444 445 446
3 447 448 449
3 450 451 452
3 453 454 455
3 456 457 458
3 459 460 461
3 462 463 464
3 465 466 467
3 468 469 470
3 471 472 473
3 474 475 476
3 477 478 479
3 480 481 482
3 483 484 485
3 486 487 488
3 489 490 491
3 492 493 494
3 495 496 497
3 498 499 500
3 501 502 503
3 504 505 506
3 507 508 509
3 510 511 512
3 513 514 515
3 516 517 518
3 519 520 521
3 522 523 524
3 525 526 527
3 528 529 530
3 531 532 533
3 534 535 536
3 537 538 539
3 540 541 542
3 543 544 545
3 546 547 548
3 549 550 551
3 552 553 554
3 555 556 557
3 558 559 560
3 561 562 563
3 564 565 566
3 567 568 569
3 570 571 572
3 573 574 575
3 576 577 578
3 579 580 581
3 582 583 584
3 585 586 587
3 588 589 590
3 591 592 593
3 594 595 596
3 597 598 599
3 600 601 602
3 603 604 605
3 606 607 608
3 609 610 611
3 612 613 614
3 615 616 617
