ply
format ascii 1.0
Created by Open Asset Import Library - http://assimp.sf.net (v3.0.1262)
element vertex 354
property float x
property float y
property float z
property float nx
property float ny
property float nz
element face 118
property list uint uint vertex_indices
end_header
-0.475528 -0.507715 -0.154508 -0.63349 0.322009 -0.703562
-0.103956 -0.507715 -0.489074 -0.63349 0.322009 -0.703562
-0.433013 -0.632715 -0.25 -0.63349 0.322009 -0.703562
-0.433013 -0.632715 -0.25 0 -1 -4.74581e-16
-1.01234e-08 -0.632715 -1.16132e-08 0 -1 -4.74581e-16
-0.433013 -0.632715 0.25 0 -1 -4.74581e-16
-0.433013 -0.632715 0.25 -0.473368 -0.322008 0.819898
3.95498e-08 -0.632715 0.5 -0.473368 -0.322008 0.819898
-0.371572 -0.507715 0.334565 -0.473368 -0.322008 0.819898
-0.389751 -0.307715 0.0409645 -0.84376 -0.383332 -0.375666
-0.230352 -0.307715 -0.317052 -0.84376 -0.383332 -0.375666
-0.322354 -0.382715 -0.0338808 -0.84376 -0.383332 -0.375666
-0.372717 -0.228708 0.121103 -0.531 0.839821 -0.112868
-0.279343 -0.173747 0.0907642 -0.531 0.839821 -0.112868
-0.291237 -0.228708 -0.262231 -0.531 0.839821 -0.112868
-0.371572 -0.507715 0.334565 -0.493326 0.841657 0.219643
-0.190519 -0.382715 0.262227 -0.493326 0.841657 0.219643
-0.322354 -0.382715 -0.0338808 -0.493326 0.841657 0.219643
-0.322354 -0.382715 -0.0338808 -0.436879 0.841657 -0.317411
-0.131836 -0.382715 -0.296108 -0.436879 0.841657 -0.317411
-0.475528 -0.507715 -0.154508 -0.436879 0.841657 -0.317411
-0.291237 -0.228708 -0.262231 -0.284727 0.388624 -0.8763
0.0814802 -0.228708 -0.383334 -0.284727 0.388624 -0.8763
-0.230352 -0.307715 -0.317052 -0.284727 0.388624 -0.8763
-0.279343 -0.173747 0.0907642 -0.958731 0.198258 -0.203784
-0.125181 0.404167 -0.072273 -0.958731 0.198258 -0.203784
-0.218276 -0.173747 -0.196536 -0.958731 0.198258 -0.203784
-0.279343 -0.173747 0.0907642 -0.655848 0.198258 0.728394
-0.0610676 -0.173747 0.2873 -0.655848 0.198258 0.728394
-0.125181 0.404167 0.0722732 -0.655848 0.198258 0.728394
-0.24414 0.67589 -0.0256601 -0.804133 0.109716 -0.584237
-0.0998475 0.67589 -0.224261 -0.804133 0.109716 -0.584237
-0.23347 0.486785 -0.0758589 -0.804133 0.109716 -0.584237
-0.230352 -0.307715 -0.317052 -0.0965434 -0.383331 -0.918551
0.159399 -0.307715 -0.358017 -0.0965434 -0.383331 -0.918551
-0.131836 -0.382715 -0.296108 -0.0965434 -0.383331 -0.918551
-0.218276 -0.173747 -0.196536 -0.167754 0.839821 -0.516294
0.0610676 -0.173747 -0.2873 -0.167754 0.839821 -0.516294
-0.291237 -0.228708 -0.262231 -0.167754 0.839821 -0.516294
-0.190519 -0.382715 0.262227 -0.747216 -0.383333 0.542885
-0.159399 -0.307715 0.358017 -0.747216 -0.383333 0.542885
-0.389751 -0.307715 0.0409645 -0.747216 -0.383333 0.542885
-0.18243 0.486785 0.164261 -0.90803 0.109716 0.404281
-0.144292 0.67589 0.198601 -0.90803 0.109716 0.404281
-0.24414 0.67589 -0.0256601 -0.90803 0.109716 0.404281
-0.159399 -0.307715 0.358017 0.0963128 -0.388624 0.916349
0.230352 -0.307715 0.317052 0.0963128 -0.388624 0.916349
-0.0814802 -0.228708 0.383334 0.0963128 -0.388624 0.916349
-0.144292 0.67589 0.198601 -0.535853 0.749194 0.38932
-0.0586342 0.771924 0.131695 -0.535853 0.749194 0.38932
-0.143368 0.771924 0.0150685 -0.535853 0.749194 0.38932
-0.143368 0.771924 0.0150685 -0.605087 0.749194 -0.269402
-0.0847338 0.771924 -0.116626 -0.605087 0.749194 -0.269402
-0.24414 0.67589 -0.0256601 -0.605087 0.749194 -0.269402
-0.143368 0.771924 0.0150685 0 1 -1.02814e-15
0.0847338 0.771924 0.116626 0 1 -1.02814e-15
0.0586342 0.771924 -0.131695 0 1 -1.02814e-15
-0.125181 0.404167 -0.072273 -0.606566 -0.795033 4.19635e-08
-0.125181 0.404167 0.0722732 -0.606566 -0.795033 4.19635e-08
-0.23347 0.486785 -0.0758589 -0.606566 -0.795033 4.19635e-08
-0.0998475 0.67589 -0.224261 0.103897 0.109715 -0.988518
0.144292 0.67589 -0.198601 0.103897 0.109715 -0.988518
-0.0510391 0.486785 -0.24012 0.103897 0.109715 -0.988518
-0.0847338 0.771924 -0.116626 -0.0692342 0.749194 -0.658722
0.0586342 0.771924 -0.131695 -0.0692342 0.749194 -0.658722
-0.0998475 0.67589 -0.224261 -0.0692342 0.749194 -0.658722
-0.0814802 -0.228708 0.383334 0.167754 0.839821 0.516294
0.291237 -0.228708 0.262231 0.167754 0.839821 0.516294
-0.0610676 -0.173747 0.2873 0.167754 0.839821 0.516294
-0.0610676 -0.173747 0.2873 0.302883 0.198258 0.932178
0.218276 -0.173747 0.196536 0.302883 0.198258 0.932178
3.42382e-09 0.404167 0.144546 0.302883 0.198258 0.932178
-0.0586342 0.771924 0.131695 0.0692344 0.749194 0.658722
0.0998475 0.67589 0.224261 0.0692344 0.749194 0.658722
0.0847338 0.771924 0.116626 0.0692344 0.749194 0.658722
-0.0510391 0.486785 -0.24012 -0.303283 -0.795033 -0.525301
3.42382e-09 0.404167 -0.144546 -0.303283 -0.795033 -0.525301
-0.125181 0.404167 -0.072273 -0.303283 -0.795033 -0.525301
-1.01234e-08 -0.632715 -1.16132e-08 0 -1 -4.74581e-16
0.433013 -0.632715 0.25 0 -1 8.97644e-17
3.95498e-08 -0.632715 0.5 0 -1 8.97644e-17
-1.01234e-08 -0.632715 -0.5 0 -1 0
0.433013 -0.632715 -0.25 0 -1 0
-1.01234e-08 -0.632715 -1.16132e-08 0 -1 -4.74581e-16
3.42382e-09 0.404167 0.144546 -0.228631 -0.672754 0.703655
0.0510391 0.486785 0.24012 -0.228631 -0.672754 0.703655
-0.18243 0.486785 0.164261 -0.228631 -0.672754 0.703655
3.42382e-09 0.404167 -0.144546 0.483107 0.257744 -0.836765
0.125181 0.404167 -0.072273 0.483107 0.257744 -0.836765
0.0610676 -0.173747 -0.2873 0.483107 0.257744 -0.836765
0.0510391 0.486785 0.24012 -0.103897 0.109716 0.988518
0.0998475 0.67589 0.224261 -0.103897 0.109716 0.988518
-0.144292 0.67589 0.198601 -0.103897 0.109716 0.988518
0.0814802 -0.228708 -0.383334 0.616535 0.388624 -0.684731
0.372717 -0.228708 -0.121103 0.616535 0.388624 -0.684731
0.159399 -0.307715 -0.358017 0.616535 0.388624 -0.684731
0.0847338 0.771924 0.116626 0.605087 0.749194 0.269402
0.24414 0.67589 0.02566 0.605087 0.749194 0.269402
0.143368 0.771924 -0.0150686 0.605087 0.749194 0.269402
0.103956 -0.507715 0.489074 0.473626 0.70639 0.526015
0.475528 -0.507715 0.154508 0.473626 0.70639 0.526015
0.131836 -0.382715 0.296107 0.473626 0.70639 0.526015
0.125181 0.404167 0.0722732 0.495068 -0.672753 0.549828
0.23347 0.486785 0.0758588 0.495068 -0.672753 0.549828
0.0510391 0.486785 0.24012 0.495068 -0.672753 0.549828
0.125181 0.404167 0.0722732 0.966213 0.257744 -1.33689e-07
0.279343 -0.173747 -0.0907641 0.966213 0.257744 -1.33689e-07
0.125181 0.404167 -0.072273 0.966213 0.257744 -1.33689e-07
0.131836 -0.382715 0.296107 0.511145 -0.775123 0.371368
0.322354 -0.382715 0.0338807 0.511145 -0.775123 0.371368
0.230352 -0.307715 0.317052 0.511145 -0.775123 0.371368
0.143368 0.771924 -0.0150686 0.535852 0.749194 -0.38932
0.144292 0.67589 -0.198601 0.535852 0.749194 -0.38932
0.0586342 0.771924 -0.131695 0.535852 0.749194 -0.38932
0.144292 0.67589 -0.198601 0.90803 0.109716 -0.404281
0.24414 0.67589 0.02566 0.90803 0.109716 -0.404281
0.18243 0.486785 -0.164261 0.90803 0.109716 -0.404281
0.159399 -0.307715 -0.358017 0.747216 -0.383333 -0.542885
0.389751 -0.307715 -0.0409646 0.747216 -0.383333 -0.542885
0.190519 -0.382715 -0.262226 0.747216 -0.383333 -0.542885
0.18243 0.486785 -0.164261 0.723699 -0.672754 -0.153827
0.23347 0.486785 0.0758588 0.723699 -0.672754 -0.153827
0.125181 0.404167 -0.072273 0.723699 -0.672754 -0.153827
0.190519 -0.382715 -0.262226 0.218729 0.70639 -0.673179
0.371572 -0.507715 -0.334565 0.218729 0.70639 -0.673179
-0.103956 -0.507715 -0.489074 0.218729 0.70639 -0.673179
0.218276 -0.173747 0.196536 0.531001 0.839821 0.112868
0.291237 -0.228708 0.262231 0.531001 0.839821 0.112868
0.279343 -0.173747 -0.0907641 0.531001 0.839821 0.112868
0.23347 0.486785 0.0758588 0.804133 0.109716 0.584237
0.24414 0.67589 0.02566 0.804133 0.109716 0.584237
0.0998475 0.67589 0.224261 0.804133 0.109716 0.584237
0.279343 -0.173747 -0.0907641 0.363247 0.839821 -0.403426
0.372717 -0.228708 -0.121103 0.363247 0.839821 -0.403426
0.0610676 -0.173747 -0.2873 0.363247 0.839821 -0.403426
0.291237 -0.228708 0.262231 0.901262 0.388624 0.191569
0.389751 -0.307715 -0.0409646 0.901262 0.388624 0.191569
0.372717 -0.228708 -0.121103 0.901262 0.388624 0.191569
0.322354 -0.382715 0.0338807 0.692356 0.70639 -0.147165
0.475528 -0.507715 0.154508 0.692356 0.70639 -0.147165
0.371572 -0.507715 -0.334565 0.692356 0.70639 -0.147165
0.433013 -0.632715 -0.25 0.946737 -0.322008 0
0.475528 -0.507715 0.154508 0.946737 -0.322008 0
0.433013 -0.632715 0.25 0.946737 -0.322008 0
-0.433013 -0.632715 -0.25 0 -1 -4.74581e-16
-1.01234e-08 -0.632715 -0.5 0 -1 0
-1.01234e-08 -0.632715 -1.16132e-08 0 -1 -4.74581e-16
-0.433013 -0.632715 0.25 -0.926048 0.322008 0.196838
-0.371572 -0.507715 0.334565 -0.926048 0.322008 0.196838
-0.475528 -0.507715 -0.154508 -0.926048 0.322008 0.196838
-0.389751 -0.307715 0.0409645 -0.745425 -0.388625 0.541583
-0.159399 -0.307715 0.358017 -0.745425 -0.388625 0.541583
-0.372717 -0.228708 0.121103 -0.745425 -0.388625 0.541583
-0.372717 -0.228708 0.121103 -0.363246 0.839821 0.403426
-0.0814802 -0.228708 0.383334 -0.363246 0.839821 0.403426
-0.279343 -0.173747 0.0907642 -0.363246 0.839821 0.403426
-0.322354 -0.382715 -0.0338808 -0.577186 -0.775124 0.25698
-0.190519 -0.382715 0.262227 -0.577186 -0.775124 0.25698
-0.389751 -0.307715 0.0409645 -0.577186 -0.775124 0.25698
-0.291237 -0.228708 -0.262231 -0.841737 -0.388625 -0.374766
-0.230352 -0.307715 -0.317052 -0.841737 -0.388625 -0.374766
-0.389751 -0.307715 0.0409645 -0.841737 -0.388625 -0.374766
-0.279343 -0.173747 0.0907642 -0.531 0.839821 -0.112868
-0.218276 -0.173747 -0.196536 -0.531001 0.839821 -0.112868
-0.291237 -0.228708 -0.262231 -0.531 0.839821 -0.112868
-0.279343 -0.173747 0.0907642 -0.966213 0.257744 6.68446e-08
-0.125181 0.404167 0.0722732 -0.966213 0.257744 6.68446e-08
-0.125181 0.404167 -0.072273 -0.966213 0.257744 6.68446e-08
-0.24414 0.67589 -0.0256601 -0.636021 0.618016 -0.462097
-0.0847338 0.771924 -0.116626 -0.636021 0.618016 -0.462097
-0.0998475 0.67589 -0.224261 -0.636021 0.618016 -0.462097
-0.23347 0.486785 -0.0758589 -0.972242 -0.109716 0.206657
-0.18243 0.486785 0.164261 -0.972242 -0.109716 0.206657
-0.24414 0.67589 -0.0256601 -0.972242 -0.109716 0.206657
-0.230352 -0.307715 -0.317052 -0.511145 -0.775124 -0.371368
-0.131836 -0.382715 -0.296108 -0.511145 -0.775124 -0.371368
-0.322354 -0.382715 -0.0338808 -0.511145 -0.775124 -0.371368
-0.190519 -0.382715 0.262227 -0.0660419 -0.775124 0.628348
0.131836 -0.382715 0.296107 -0.0660419 -0.775124 0.628348
-0.159399 -0.307715 0.358017 -0.0660419 -0.775124 0.628348
-0.18243 0.486785 0.164261 -0.307151 -0.109717 0.945315
0.0510391 0.486785 0.24012 -0.307151 -0.109717 0.945315
-0.144292 0.67589 0.198601 -0.307151 -0.109717 0.945315
-0.144292 0.67589 0.198601 -0.718198 0.618016 0.319762
-0.143368 0.771924 0.0150685 -0.718198 0.618016 0.319762
-0.24414 0.67589 -0.0256601 -0.718198 0.618016 0.319762
-0.144292 0.67589 0.198601 -0.0821766 0.618016 0.781859
0.0998475 0.67589 0.224261 -0.0821766 0.618016 0.781859
-0.0586342 0.771924 0.131695 -0.0821766 0.618016 0.781859
-0.143368 0.771924 0.0150685 0 1 -1.02814e-15
0.0586342 0.771924 -0.131695 0 1 -1.02814e-15
-0.0847338 0.771924 -0.116626 0 1 0
-0.131836 -0.382715 -0.296108 -0.473626 0.70639 -0.526015
-0.103956 -0.507715 -0.489074 -0.473626 0.70639 -0.526015
-0.475528 -0.507715 -0.154508 -0.473626 0.70639 -0.526015
-0.125181 0.404167 0.0722732 -0.303283 -0.795033 0.525302
3.42382e-09 0.404167 0.144546 -0.303283 -0.795033 0.525302
-0.18243 0.486785 0.164261 -0.303283 -0.795033 0.525302
-0.103956 -0.507715 -0.489074 0.292558 0.322008 -0.9004
0.371572 -0.507715 -0.334565 0.292558 0.322008 -0.9004
-1.01234e-08 -0.632715 -0.5 0.292558 0.322008 -0.9004
-0.0998475 0.67589 -0.224261 -0.665091 -0.109716 -0.738659
-0.0510391 0.486785 -0.24012 -0.665091 -0.109716 -0.738659
-0.23347 0.486785 -0.0758589 -0.665091 -0.109716 -0.738659
-0.0610676 -0.173747 0.2873 0.167754 0.839821 0.516294
0.291237 -0.228708 0.262231 0.167754 0.839821 0.516294
0.218276 -0.173747 0.196536 0.167754 0.839821 0.516294
-0.0586342 0.771924 0.131695 0 1 1.54221e-15
0.0847338 0.771924 0.116626 0 1 -1.02814e-15
-0.143368 0.771924 0.0150685 0 1 -1.02814e-15
-1.01234e-08 -0.632715 -1.16132e-08 0 -1 -4.74581e-16
3.95498e-08 -0.632715 0.5 0 -1 8.97644e-17
-0.433013 -0.632715 0.25 0 -1 -4.74581e-16
-1.01234e-08 -0.632715 -1.16132e-08 0 -1 -4.74581e-16
0.433013 -0.632715 -0.25 0 -1 0
0.433013 -0.632715 0.25 0 -1 8.97644e-17
3.42382e-09 0.404167 0.144546 0.303282 -0.795033 0.525302
0.125181 0.404167 0.0722732 0.303282 -0.795033 0.525302
0.0510391 0.486785 0.24012 0.303282 -0.795033 0.525302
3.42382e-09 0.404167 -0.144546 -0.302883 0.198258 -0.932178
0.0610676 -0.173747 -0.2873 -0.302883 0.198258 -0.932178
-0.218276 -0.173747 -0.196536 -0.302883 0.198258 -0.932178
3.42382e-09 0.404167 -0.144546 0.303283 -0.795033 -0.525301
0.18243 0.486785 -0.164261 0.303283 -0.795033 -0.525301
0.125181 0.404167 -0.072273 0.303283 -0.795033 -0.525301
3.95498e-08 -0.632715 0.5 -0.292558 0.322009 0.9004
0.103956 -0.507715 0.489074 -0.292558 0.322009 0.9004
-0.371572 -0.507715 0.334565 -0.292558 0.322009 0.9004
0.0510391 0.486785 0.24012 0.665091 -0.109716 0.738659
0.23347 0.486785 0.0758588 0.665091 -0.109716 0.738659
0.0998475 0.67589 0.224261 0.665091 -0.109716 0.738659
0.0586342 0.771924 -0.131695 0.0821764 0.618016 -0.781859
0.144292 0.67589 -0.198601 0.0821764 0.618016 -0.781859
-0.0998475 0.67589 -0.224261 0.0821764 0.618016 -0.781859
0.0610676 -0.173747 -0.2873 -0.167754 0.839821 -0.516294
0.0814802 -0.228708 -0.383334 -0.167754 0.839821 -0.516294
-0.291237 -0.228708 -0.262231 -0.167754 0.839821 -0.516294
0.0814802 -0.228708 -0.383334 -0.0963119 -0.388625 -0.916348
0.159399 -0.307715 -0.358017 -0.0963119 -0.388625 -0.916348
-0.230352 -0.307715 -0.317052 -0.0963119 -0.388625 -0.916348
0.0847338 0.771924 0.116626 0 1 -1.02814e-15
0.143368 0.771924 -0.0150686 0 1 0
0.0586342 0.771924 -0.131695 0 1 -1.02814e-15
0.0998475 0.67589 0.224261 0.636021 0.618016 0.462097
0.24414 0.67589 0.02566 0.636021 0.618016 0.462097
0.0847338 0.771924 0.116626 0.636021 0.618016 0.462097
0.125181 0.404167 -0.072273 0.606566 -0.795033 -8.39269e-08
0.23347 0.486785 0.0758588 0.606566 -0.795033 -8.39269e-08
0.125181 0.404167 0.0722732 0.606566 -0.795033 -8.39269e-08
0.125181 0.404167 -0.072273 0.655848 0.198258 -0.728393
0.279343 -0.173747 -0.0907641 0.655848 0.198258 -0.728393
0.0610676 -0.173747 -0.2873 0.655848 0.198258 -0.728393
0.131836 -0.382715 0.296107 0.436879 0.841657 0.317411
0.475528 -0.507715 0.154508 0.436879 0.841657 0.317411
0.322354 -0.382715 0.0338807 0.436879 0.841657 0.317411
0.143368 0.771924 -0.0150686 0.718198 0.618016 -0.319763
0.24414 0.67589 0.02566 0.718198 0.618016 -0.319763
0.144292 0.67589 -0.198601 0.718198 0.618016 -0.319763
0.144292 0.67589 -0.198601 0.307151 -0.109717 -0.945315
0.18243 0.486785 -0.164261 0.307151 -0.109717 -0.945315
-0.0510391 0.486785 -0.24012 0.307151 -0.109717 -0.945315
0.159399 -0.307715 -0.358017 0.0660425 -0.775124 -0.628348
0.190519 -0.382715 -0.262226 0.0660425 -0.775124 -0.628348
-0.131836 -0.382715 -0.296108 0.0660425 -0.775124 -0.628348
0.18243 0.486785 -0.164261 0.972242 -0.109716 -0.206657
0.24414 0.67589 0.02566 0.972242 -0.109716 -0.206657
0.23347 0.486785 0.0758588 0.972242 -0.109716 -0.206657
0.218276 -0.173747 0.196536 0.958731 0.198258 0.203785
0.279343 -0.173747 -0.0907641 0.958731 0.198258 0.203785
0.125181 0.404167 0.0722732 0.958731 0.198258 0.203785
0.230352 -0.307715 0.317052 0.284727 0.388622 0.876301
0.291237 -0.228708 0.262231 0.284727 0.388622 0.876301
-0.0814802 -0.228708 0.383334 0.284727 0.388622 0.876301
0.291237 -0.228708 0.262231 0.531001 0.839821 0.112868
0.372717 -0.228708 -0.121103 0.531001 0.839821 0.112868
0.279343 -0.173747 -0.0907641 0.531001 0.839821 0.112868
0.322354 -0.382715 0.0338807 0.493326 0.841657 -0.219643
0.371572 -0.507715 -0.334565 0.493326 0.841657 -0.219643
0.190519 -0.382715 -0.262226 0.493326 0.841657 -0.219643
0.322354 -0.382715 0.0338807 0.84376 -0.383332 0.375666
0.389751 -0.307715 -0.0409646 0.84376 -0.383332 0.375666
0.230352 -0.307715 0.317052 0.84376 -0.383332 0.375666
0.371572 -0.507715 -0.334565 0.926048 0.322009 -0.196838
0.475528 -0.507715 0.154508 0.926048 0.322009 -0.196838
0.433013 -0.632715 -0.25 0.926048 0.322009 -0.196838
0.372717 -0.228708 -0.121103 0.745425 -0.388624 -0.541583
0.389751 -0.307715 -0.0409646 0.745425 -0.388624 -0.541583
0.159399 -0.307715 -0.358017 0.745425 -0.388624 -0.541583
0.433013 -0.632715 0.25 0.633491 0.322009 0.703562
0.475528 -0.507715 0.154508 0.633491 0.322009 0.703562
0.103956 -0.507715 0.489074 0.633491 0.322009 0.703562
-0.433013 -0.632715 -0.25 -0.946737 -0.322008 2.08282e-07
-0.433013 -0.632715 0.25 -0.946737 -0.322008 2.08282e-07
-0.475528 -0.507715 -0.154508 -0.946737 -0.322008 2.08282e-07
-0.372717 -0.228708 0.121103 -0.901262 0.388624 -0.191569
-0.291237 -0.228708 -0.262231 -0.901262 0.388624 -0.191569
-0.389751 -0.307715 0.0409645 -0.901262 0.388624 -0.191569
-0.371572 -0.507715 0.334565 -0.692355 0.70639 0.147165
-0.322354 -0.382715 -0.0338808 -0.692355 0.70639 0.147165
-0.475528 -0.507715 -0.154508 -0.692355 0.70639 0.147165
-0.23347 0.486785 -0.0758589 -0.723699 -0.672753 0.153827
-0.125181 0.404167 0.0722732 -0.723699 -0.672753 0.153827
-0.18243 0.486785 0.164261 -0.723699 -0.672753 0.153827
-0.23347 0.486785 -0.0758589 -0.495067 -0.672754 -0.549828
-0.0510391 0.486785 -0.24012 -0.495067 -0.672754 -0.549828
-0.125181 0.404167 -0.072273 -0.495067 -0.672754 -0.549828
-0.159399 -0.307715 0.358017 -0.616534 0.388625 0.684731
-0.0814802 -0.228708 0.383334 -0.616534 0.388625 0.684731
-0.372717 -0.228708 0.121103 -0.616534 0.388625 0.684731
-0.131836 -0.382715 -0.296108 0.056447 0.841657 -0.537054
0.190519 -0.382715 -0.262226 0.056447 0.841657 -0.537054
-0.103956 -0.507715 -0.489074 0.056447 0.841657 -0.537054
-0.125181 0.404167 -0.072273 -0.483107 0.257744 -0.836765
3.42382e-09 0.404167 -0.144546 -0.483107 0.257744 -0.836765
-0.218276 -0.173747 -0.196536 -0.483107 0.257744 -0.836765
-0.103956 -0.507715 -0.489074 -0.473368 -0.322008 -0.819898
-1.01234e-08 -0.632715 -0.5 -0.473368 -0.322008 -0.819898
-0.433013 -0.632715 -0.25 -0.473368 -0.322008 -0.819898
-0.0814802 -0.228708 0.383334 -0.363246 0.839821 0.403426
-0.0610676 -0.173747 0.2873 -0.363246 0.839821 0.403426
-0.279343 -0.173747 0.0907642 -0.363246 0.839821 0.403426
-0.0610676 -0.173747 0.2873 -0.483106 0.257744 0.836766
3.42382e-09 0.404167 0.144546 -0.483106 0.257744 0.836766
-0.125181 0.404167 0.0722732 -0.483106 0.257744 0.836766
-0.0510391 0.486785 -0.24012 0.228631 -0.672754 -0.703655
0.18243 0.486785 -0.164261 0.228631 -0.672754 -0.703655
3.42382e-09 0.404167 -0.144546 0.228631 -0.672754 -0.703655
3.42382e-09 0.404167 0.144546 0.483106 0.257744 0.836766
0.218276 -0.173747 0.196536 0.483106 0.257744 0.836766
0.125181 0.404167 0.0722732 0.483106 0.257744 0.836766
3.95498e-08 -0.632715 0.5 0.473368 -0.322008 0.819898
0.433013 -0.632715 0.25 0.473368 -0.322008 0.819898
0.103956 -0.507715 0.489074 0.473368 -0.322008 0.819898
0.0610676 -0.173747 -0.2873 0.363247 0.839821 -0.403426
0.372717 -0.228708 -0.121103 0.363247 0.839821 -0.403426
0.0814802 -0.228708 -0.383334 0.363247 0.839821 -0.403426
0.103956 -0.507715 0.489074 -0.0564466 0.841657 0.537054
0.131836 -0.382715 0.296107 -0.0564466 0.841657 0.537054
-0.190519 -0.382715 0.262227 -0.0564466 0.841657 0.537054
0.131836 -0.382715 0.296107 0.0965443 -0.383331 0.918551
0.230352 -0.307715 0.317052 0.0965443 -0.383331 0.918551
-0.159399 -0.307715 0.358017 0.0965443 -0.383331 0.918551
0.190519 -0.382715 -0.262226 0.577187 -0.775124 -0.25698
0.389751 -0.307715 -0.0409646 0.577187 -0.775124 -0.25698
0.322354 -0.382715 0.0338807 0.577187 -0.775124 -0.25698
0.230352 -0.307715 0.317052 0.841737 -0.388626 0.374766
0.389751 -0.307715 -0.0409646 0.841737 -0.388626 0.374766
0.291237 -0.228708 0.262231 0.841737 -0.388626 0.374766
0.371572 -0.507715 -0.334565 0.473368 -0.322008 -0.819898
0.433013 -0.632715 -0.25 0.473368 -0.322008 -0.819898
-1.01234e-08 -0.632715 -0.5 0.473368 -0.322008 -0.819898
-0.371572 -0.507715 0.334565 -0.218729 0.70639 0.67318
0.103956 -0.507715 0.489074 -0.218729 0.70639 0.67318
-0.190519 -0.382715 0.262227 -0.218729 0.70639 0.67318
3 0 1 2
3 3 4 5
3 6 7 8
3 9 10 11
3 12 13 14
3 15 16 17
3 18 19 20
3 21 22 23
3 24 25 26
3 27 28 29
3 30 31 32
3 33 34 35
3 36 37 38
3 39 40 41
3 42 43 44
3 45 46 47
3 48 49 50
3 51 52 53
3 54 55 56
3 57 58 59
3 60 61 62
3 63 64 65
3 66 67 68
3 69 70 71
3 72 73 74
3 75 76 77
3 78 79 80
3 81 82 83
3 84 85 86
3 87 88 89
3 90 91 92
3 93 94 95
3 96 97 98
3 99 100 101
3 102 103 104
3 105 106 107
3 108 109 110
3 111 112 113
3 114 115 116
3 117 118 119
3 120 121 122
3 123 124 125
3 126 127 128
3 129 130 131
3 132 133 134
3 135 136 137
3 138 139 140
3 141 142 143
3 144 145 146
3 147 148 149
3 150 151 152
3 153 154 155
3 156 157 158
3 159 160 161
3 162 163 164
3 165 166 167
3 168 169 170
3 171 172 173
3 174 175 176
3 177 178 179
3 180 181 182
3 183 184 185
3 186 187 188
3 189 190 191
3 192 193 194
3 195 196 197
3 198 199 200
3 201 202 203
3 204 205 206
3 207 208 209
3 210 211 212
3 213 214 215
3 216 217 218
3 219 220 221
3 222 223 224
3 225 226 227
3 228 229 230
3 231 232 233
3 234 235 236
3 237 238 239
3 240 241 242
3 243 244 245
3 246 247 248
3 249 250 251
3 252 253 254
3 255 256 257
3 258 259 260
3 261 262 263
3 264 265 266
3 267 268 269
3 270 271 272
3 273 274 275
3 276 277 278
3 279 280 281
3 282 283 284
3 285 286 287
3 288 289 290
3 291 292 293
3 294 295 296
3 297 298 299
3 300 301 302
3 303 304 305
3 306 307 308
3 309 310 311
3 312 313 314
3 315 316 317
3 318 319 320
3 321 322 323
3 324 325 326
3 327 328 329
3 330 331 332
3 333 334 335
3 336 337 338
3 339 340 341
3 342 343 344
3 345 346 347
3 348 349 350
3 351 352 353
