# Exported from Wings 3D 2.1.5
mtllib pawn.mtl
o STL
#61 vertices, 118 faces
v -0.47552836 -0.50771483 -0.15450846
v -0.43301284 -0.63271483 -0.25000006
v -0.43301273 -0.63271483 0.25000002
v -0.38975128 -0.30771484 4.0964531e-2
v -0.37271732 -0.22870755 0.12110328
v -0.37157241 -0.50771483 0.33456535
v -0.32235439 -0.38271489 -3.3880796e-2
v -0.29123704 -0.22870755 -0.26223112
v -0.27934315 -0.17374654 9.0764246e-2
v -0.24413956 0.67588977 -2.5660117e-2
v -0.23346950 0.48678545 -7.5858853e-2
v -0.23035192 -0.30771484 -0.31705219
v -0.21827563 -0.17374654 -0.19653632
v -0.19051880 -0.38271489 0.26222667
v -0.18243037 0.48678545 0.16426102
v -0.15939931 -0.30771484 0.35801680
v -0.14429205 0.67588977 0.19860104
v -0.14336811 0.77192355 1.5068541e-2
v -0.13183554 -0.38271489 -0.29610751
v -0.12518077 0.40416719 -7.2273026e-2
v -0.12518076 0.40416719 7.2273220e-2
v -0.10395586 -0.50771483 -0.48907381
v -9.9847463e-2 0.67588977 -0.22426115
v -8.4733829e-2 0.77192355 -0.11662613
v -8.1480190e-2 -0.22870755 0.38333412
v -6.1067567e-2 -0.17374654 0.28730028
v -5.8634242e-2 0.77192355 0.13169464
v -5.1039057e-2 0.48678545 -0.24011986
v -1.0123411e-8 -0.63271483 -1.1613238e-8
v -1.0123411e-8 -0.63271483 -0.49999997
v 3.4238232e-9 0.40416719 0.14454620
v 3.4238232e-9 0.40416719 -0.14454622
v 3.9549782e-8 -0.63271483 0.50000003
v 5.1039065e-2 0.48678545 0.24011983
v 5.8634240e-2 0.77192355 -0.13169466
v 6.1067576e-2 -0.17374654 -0.28730029
v 8.1480197e-2 -0.22870755 -0.38333415
v 8.4733818e-2 0.77192355 0.11662607
v 9.9847456e-2 0.67588977 0.22426111
v 0.10395590 -0.50771483 0.48907377
v 0.12518076 0.40416719 -7.2273026e-2
v 0.12518078 0.40416719 7.2273220e-2
v 0.13183556 -0.38271489 0.29610743
v 0.14336808 0.77192355 -1.5068619e-2
v 0.14429202 0.67588977 -0.19860113
v 0.15939934 -0.30771484 -0.35801660
v 0.18243039 0.48678545 -0.16426110
v 0.19051882 -0.38271489 -0.26222649
v 0.21827558 -0.17374654 0.19653625
v 0.23035193 -0.30771484 0.31705201
v 0.23346953 0.48678545 7.5858775e-2
v 0.24413960 0.67588977 2.5660040e-2
v 0.27934319 -0.17374654 -9.0764062e-2
v 0.29123705 -0.22870755 0.26223107
v 0.32235440 -0.38271489 3.3880737e-2
v 0.37157244 -0.50771483 -0.33456526
v 0.37271731 -0.22870755 -0.12110308
v 0.38975124 -0.30771484 -4.0964573e-2
v 0.43301276 -0.63271483 0.25000002
v 0.43301276 -0.63271483 -0.25000006
v 0.47552828 -0.50771483 0.15450839
vn -0.63349040 0.32200903 -0.70356243
vn -0.94673687 -0.32200824 2.0828208e-7
vn -0.92604831 0.32200838 0.19683784
vn -0.69235541 0.70638976 0.14716483
vn -0.43687914 0.84165712 -0.31741126
vn -0.47362616 0.70638961 -0.52601519
vn -0.63349040 0.32200903 -0.70356243
vn -0.94673687 -0.32200824 2.0828208e-7
vn 0.0000000e+0 -1.00000000 -4.7458076e-16
vn 0.0000000e+0 -1.00000000 0.0000000e+0
vn -0.47336817 -0.32200841 -0.81989826
vn -0.94673687 -0.32200824 2.0828208e-7
vn 0.0000000e+0 -1.00000000 -4.7458076e-16
vn -0.92604831 0.32200838 0.19683784
vn -0.47336836 -0.32200843 0.81989814
vn 0.0000000e+0 -1.00000000 5.1278996e-16
vn -0.84376014 -0.38333228 -0.37566633
vn -0.74542488 -0.38862539 0.54158291
vn -0.90126151 0.38862444 -0.19156914
vn -0.57718646 -0.77512388 0.25698007
vn -0.84173708 -0.38862505 -0.37476560
vn -0.74721638 -0.38333288 0.54288451
vn -0.74542488 -0.38862539 0.54158291
vn -0.90126151 0.38862444 -0.19156914
vn -0.53100032 0.83982114 -0.11286765
vn -0.36324645 0.83982089 0.40342644
vn -0.61653388 0.38862523 0.68473090
vn -0.92604831 0.32200838 0.19683784
vn -0.47336836 -0.32200843 0.81989814
vn -0.69235541 0.70638976 0.14716483
vn -0.49332578 0.84165711 0.21964287
vn -0.21872927 0.70638967 0.67317987
vn -0.29255758 0.32200865 0.90040019
vn -0.84376014 -0.38333228 -0.37566633
vn -0.69235541 0.70638976 0.14716483
vn -0.49332578 0.84165711 0.21964287
vn -0.57718646 -0.77512388 0.25698007
vn -0.43687914 0.84165712 -0.31741126
vn -0.51114467 -0.77512366 -0.37136832
vn -0.90126151 0.38862444 -0.19156914
vn -0.53100032 0.83982114 -0.11286765
vn -0.84173708 -0.38862505 -0.37476560
vn -0.28472692 0.38862352 -0.87630037
vn -0.53100101 0.83982072 -0.11286756
vn -0.16775388 0.83982081 -0.51629414
vn -0.16775388 0.83982092 -0.51629397
vn -0.53100032 0.83982114 -0.11286765
vn -0.36324645 0.83982089 0.40342644
vn -0.53100101 0.83982072 -0.11286756
vn -0.95873136 0.19825774 -0.20378431
vn -0.96621327 0.25774392 6.6844577e-8
vn -0.65584798 0.19825768 0.72839366
vn -0.36324646 0.83982088 0.40342645
vn -0.80413292 0.10971617 -0.58423677
vn -0.63602149 0.61801565 -0.46209666
vn -0.97224242 -0.10971614 0.20665681
vn -0.90803037 0.10971578 0.40428121
vn -0.71819819 0.61801563 0.31976247
vn -0.60508736 0.74919398 -0.26940242
vn -0.80413292 0.10971617 -0.58423677
vn -0.97224242 -0.10971614 0.20665681
vn -0.72369896 -0.67275331 0.15382719
vn -0.49506699 -0.67275398 -0.54982793
vn -0.60656596 -0.79503317 4.1963453e-8
vn -0.66509079 -0.10971642 -0.73865861
vn -0.84376014 -0.38333228 -0.37566633
vn -0.84173708 -0.38862505 -0.37476560
vn -0.28472692 0.38862352 -0.87630037
vn -0.51114467 -0.77512366 -0.37136832
vn -9.6543399e-2 -0.38333133 -0.91855129
vn -9.6311866e-2 -0.38862533 -0.91634839
vn -0.53100101 0.83982072 -0.11286756
vn -0.95873136 0.19825774 -0.20378431
vn -0.16775388 0.83982081 -0.51629414
vn -0.48310679 0.25774425 -0.83676504
vn -0.30288256 0.19825782 -0.93217809
vn -0.49332578 0.84165711 0.21964287
vn -0.21872927 0.70638967 0.67317987
vn -0.57718646 -0.77512388 0.25698007
vn -0.74721638 -0.38333288 0.54288451
vn -6.6041938e-2 -0.77512405 0.62834797
vn -5.6446584e-2 0.84165707 0.53705414
vn -0.97224242 -0.10971614 0.20665681
vn -0.72369896 -0.67275331 0.15382719
vn -0.90803037 0.10971578 0.40428121
vn -0.30715140 -0.10971666 0.94531491
vn -0.30328273 -0.79503275 0.52530231
vn -0.22863134 -0.67275359 0.70365497
vn -0.74542488 -0.38862539 0.54158291
vn -0.74721638 -0.38333288 0.54288451
vn -6.6041938e-2 -0.77512405 0.62834797
vn -0.61653388 0.38862523 0.68473090
vn 9.6312824e-2 -0.38862376 0.91634896
vn 9.6544293e-2 -0.38333125 0.91855122
vn -0.90803037 0.10971578 0.40428121
vn -0.30715140 -0.10971666 0.94531491
vn -0.71819819 0.61801563 0.31976247
vn -0.53585260 0.74919423 0.38931992
vn -8.2176584e-2 0.61801609 0.78185876
vn -0.10389732 0.10971559 0.98851800
vn -0.71819819 0.61801563 0.31976247
vn -0.53585260 0.74919423 0.38931992
vn -0.60508736 0.74919398 -0.26940242
vn 0.0000000e+0 1.00000000 0.0000000e+0
vn 0.0000000e+0 1.00000000 -1.0281399e-15
vn 0.0000000e+0 1.00000000 1.5422098e-15
vn -0.43687914 0.84165712 -0.31741126
vn -0.51114467 -0.77512366 -0.37136832
vn -9.6543399e-2 -0.38333133 -0.91855129
vn -0.47362616 0.70638961 -0.52601519
vn 5.6447019e-2 0.84165703 -0.53705416
vn 6.6042462e-2 -0.77512387 -0.62834813
vn -0.95873136 0.19825774 -0.20378431
vn -0.96621327 0.25774392 6.6844577e-8
vn -0.49506699 -0.67275398 -0.54982793
vn -0.60656596 -0.79503317 4.1963453e-8
vn -0.48310679 0.25774425 -0.83676504
vn -0.30328311 -0.79503317 -0.52530145
vn -0.96621327 0.25774392 6.6844577e-8
vn -0.65584798 0.19825768 0.72839366
vn -0.72369896 -0.67275331 0.15382719
vn -0.60656596 -0.79503317 4.1963453e-8
vn -0.30328273 -0.79503275 0.52530231
vn -0.48310578 0.25774403 0.83676569
vn -0.63349040 0.32200903 -0.70356243
vn -0.47362616 0.70638961 -0.52601519
vn 5.6447019e-2 0.84165703 -0.53705416
vn -0.47336817 -0.32200841 -0.81989826
vn 0.29255786 0.32200815 -0.90040027
vn 0.21872933 0.70639003 -0.67317948
vn -0.80413292 0.10971617 -0.58423677
vn -0.63602149 0.61801565 -0.46209666
vn -0.66509079 -0.10971642 -0.73865861
vn 0.10389713 0.10971550 -0.98851803
vn -6.9234199e-2 0.74919413 -0.65872208
vn 8.2176412e-2 0.61801635 -0.78185857
vn -0.63602149 0.61801565 -0.46209666
vn -0.60508736 0.74919398 -0.26940242
vn 0.0000000e+0 1.00000000 0.0000000e+0
vn -6.9234199e-2 0.74919413 -0.65872208
vn -0.36324645 0.83982089 0.40342644
vn -0.61653388 0.38862523 0.68473090
vn 9.6312824e-2 -0.38862376 0.91634896
vn -0.36324646 0.83982088 0.40342645
vn 0.16775394 0.83982086 0.51629405
vn 0.28472712 0.38862226 0.87630086
vn -0.65584798 0.19825768 0.72839366
vn -0.36324646 0.83982088 0.40342645
vn 0.16775394 0.83982086 0.51629405
vn -0.48310578 0.25774403 0.83676569
vn 0.30288280 0.19825779 0.93217802
vn 0.16775394 0.83982096 0.51629389
vn -0.53585260 0.74919423 0.38931992
vn -8.2176584e-2 0.61801609 0.78185876
vn 0.0000000e+0 1.00000000 1.5422098e-15
vn 6.9234377e-2 0.74919420 0.65872199
vn -0.49506699 -0.67275398 -0.54982793
vn -0.66509079 -0.10971642 -0.73865861
vn 0.10389713 0.10971550 -0.98851803
vn -0.30328311 -0.79503317 -0.52530145
vn 0.22863115 -0.67275372 -0.70365491
vn 0.30715120 -0.10971668 -0.94531497
vn 0.0000000e+0 -1.00000000 -4.7458076e-16
vn 0.0000000e+0 -1.00000000 0.0000000e+0
vn 0.0000000e+0 -1.00000000 5.1278996e-16
vn 0.0000000e+0 -1.00000000 8.9764381e-17
vn 0.0000000e+0 -1.00000000 0.0000000e+0
vn 0.0000000e+0 -1.00000000 0.0000000e+0
vn 0.0000000e+0 -1.00000000 0.0000000e+0
vn -0.47336817 -0.32200841 -0.81989826
vn 0.29255786 0.32200815 -0.90040027
vn 0.0000000e+0 -1.00000000 0.0000000e+0
vn 0.47336833 -0.32200778 -0.81989842
vn -0.30328273 -0.79503275 0.52530231
vn -0.48310578 0.25774403 0.83676569
vn 0.30288280 0.19825779 0.93217802
vn -0.22863134 -0.67275359 0.70365497
vn 0.30328243 -0.79503316 0.52530186
vn 0.48310577 0.25774381 0.83676577
vn -0.48310679 0.25774425 -0.83676504
vn -0.30328311 -0.79503317 -0.52530145
vn 0.22863115 -0.67275372 -0.70365491
vn -0.30288256 0.19825782 -0.93217809
vn 0.48310688 0.25774398 -0.83676507
vn 0.30328297 -0.79503343 -0.52530114
vn -0.47336836 -0.32200843 0.81989814
vn 0.0000000e+0 -1.00000000 5.1278996e-16
vn 0.0000000e+0 -1.00000000 8.9764381e-17
vn -0.29255758 0.32200865 0.90040019
vn 0.47336847 -0.32200804 0.81989824
vn -0.30715140 -0.10971666 0.94531491
vn -0.22863134 -0.67275359 0.70365497
vn 0.30328243 -0.79503316 0.52530186
vn -0.10389732 0.10971559 0.98851800
vn 0.66509086 -0.10971635 0.73865856
vn 0.49506758 -0.67275309 0.54982849
vn 0.0000000e+0 1.00000000 0.0000000e+0
vn 0.0000000e+0 1.00000000 -1.0281399e-15
vn -6.9234199e-2 0.74919413 -0.65872208
vn 8.2176412e-2 0.61801635 -0.78185857
vn 0.0000000e+0 1.00000000 0.0000000e+0
vn 0.53585252 0.74919428 -0.38931993
vn -0.16775388 0.83982081 -0.51629414
vn -0.30288256 0.19825782 -0.93217809
vn 0.48310688 0.25774398 -0.83676507
vn -0.16775388 0.83982092 -0.51629397
vn 0.36324667 0.83982085 -0.40342631
vn 0.65584827 0.19825781 -0.72839336
vn 0.36324670 0.83982082 -0.40342636
vn -0.28472692 0.38862352 -0.87630037
vn -0.16775388 0.83982092 -0.51629397
vn 0.36324667 0.83982085 -0.40342631
vn -9.6311866e-2 -0.38862533 -0.91634839
vn 0.61653454 0.38862404 -0.68473099
vn 0.0000000e+0 1.00000000 -1.0281399e-15
vn 0.0000000e+0 1.00000000 1.5422098e-15
vn 6.9234377e-2 0.74919420 0.65872199
vn 0.0000000e+0 1.00000000 0.0000000e+0
vn 0.60508721 0.74919418 0.26940222
vn 0.63602139 0.61801575 0.46209665
vn -8.2176584e-2 0.61801609 0.78185876
vn 6.9234377e-2 0.74919420 0.65872199
vn -0.10389732 0.10971559 0.98851800
vn 0.66509086 -0.10971635 0.73865856
vn 0.63602139 0.61801575 0.46209665
vn 0.80413289 0.10971614 0.58423682
vn -0.21872927 0.70638967 0.67317987
vn -0.29255758 0.32200865 0.90040019
vn 0.47336847 -0.32200804 0.81989824
vn -5.6446584e-2 0.84165707 0.53705414
vn 0.47362624 0.70638965 0.52601507
vn 0.63349054 0.32200905 0.70356230
vn 0.48310688 0.25774398 -0.83676507
vn 0.30328297 -0.79503343 -0.52530114
vn 0.60656589 -0.79503322 -8.3926896e-8
vn 0.65584827 0.19825781 -0.72839336
vn 0.96621325 0.25774398 -1.3368915e-7
vn 0.72369860 -0.67275370 -0.15382714
vn 0.30328243 -0.79503316 0.52530186
vn 0.48310577 0.25774381 0.83676577
vn 0.60656589 -0.79503322 -8.3926896e-8
vn 0.49506758 -0.67275309 0.54982849
vn 0.96621325 0.25774398 -1.3368915e-7
vn 0.95873128 0.19825764 0.20378477
vn -6.6041938e-2 -0.77512405 0.62834797
vn -5.6446584e-2 0.84165707 0.53705414
vn 0.47362624 0.70638965 0.52601507
vn 9.6544293e-2 -0.38333125 0.91855122
vn 0.51114489 -0.77512344 0.37136849
vn 0.43687926 0.84165702 0.31741135
vn 0.0000000e+0 1.00000000 0.0000000e+0
vn 0.60508721 0.74919418 0.26940222
vn 0.53585252 0.74919428 -0.38931993
vn 0.71819795 0.61801586 -0.31976257
vn 0.10389713 0.10971550 -0.98851803
vn 8.2176412e-2 0.61801635 -0.78185857
vn 0.53585252 0.74919428 -0.38931993
vn 0.71819795 0.61801586 -0.31976257
vn 0.30715120 -0.10971668 -0.94531497
vn 0.90803026 0.10971594 -0.40428142
vn -9.6543399e-2 -0.38333133 -0.91855129
vn -9.6311866e-2 -0.38862533 -0.91634839
vn 0.61653454 0.38862404 -0.68473099
vn 6.6042462e-2 -0.77512387 -0.62834813
vn 0.74721620 -0.38333306 -0.54288463
vn 0.74542511 -0.38862439 -0.54158332
vn 0.22863115 -0.67275372 -0.70365491
vn 0.30328297 -0.79503343 -0.52530114
vn 0.30715120 -0.10971668 -0.94531497
vn 0.90803026 0.10971594 -0.40428142
vn 0.72369860 -0.67275370 -0.15382714
vn 0.97224241 -0.10971620 -0.20665685
vn 5.6447019e-2 0.84165703 -0.53705416
vn 6.6042462e-2 -0.77512387 -0.62834813
vn 0.74721620 -0.38333306 -0.54288463
vn 0.21872933 0.70639003 -0.67317948
vn 0.57718655 -0.77512374 -0.25698030
vn 0.49332564 0.84165716 -0.21964297
vn 0.30288280 0.19825779 0.93217802
vn 0.16775394 0.83982096 0.51629389
vn 0.48310577 0.25774381 0.83676577
vn 0.95873128 0.19825764 0.20378477
vn 0.53100058 0.83982097 0.11286774
vn 9.6312824e-2 -0.38862376 0.91634896
vn 9.6544293e-2 -0.38333125 0.91855122
vn 0.51114489 -0.77512344 0.37136849
vn 0.28472712 0.38862226 0.87630086
vn 0.84173688 -0.38862555 0.37476554
vn 0.84376029 -0.38333185 0.37566642
vn 0.66509086 -0.10971635 0.73865856
vn 0.60656589 -0.79503322 -8.3926896e-8
vn 0.49506758 -0.67275309 0.54982849
vn 0.72369860 -0.67275370 -0.15382714
vn 0.97224241 -0.10971620 -0.20665685
vn 0.80413289 0.10971614 0.58423682
vn 0.60508721 0.74919418 0.26940222
vn 0.63602139 0.61801575 0.46209665
vn 0.71819795 0.61801586 -0.31976257
vn 0.90803026 0.10971594 -0.40428142
vn 0.97224241 -0.10971620 -0.20665685
vn 0.80413289 0.10971614 0.58423682
vn 0.65584827 0.19825781 -0.72839336
vn 0.96621325 0.25774398 -1.3368915e-7
vn 0.95873128 0.19825764 0.20378477
vn 0.53100058 0.83982097 0.11286774
vn 0.36324670 0.83982082 -0.40342636
vn 0.53100053 0.83982100 0.11286774
vn 0.16775394 0.83982086 0.51629405
vn 0.16775394 0.83982096 0.51629389
vn 0.53100058 0.83982097 0.11286774
vn 0.28472712 0.38862226 0.87630086
vn 0.84173688 -0.38862555 0.37476554
vn 0.53100053 0.83982100 0.11286774
vn 0.90126180 0.38862371 0.19156928
vn 0.51114489 -0.77512344 0.37136849
vn 0.43687926 0.84165702 0.31741135
vn 0.57718655 -0.77512374 -0.25698030
vn 0.49332564 0.84165716 -0.21964297
vn 0.84376029 -0.38333185 0.37566642
vn 0.69235561 0.70638958 -0.14716477
vn 0.29255786 0.32200815 -0.90040027
vn 0.21872933 0.70639003 -0.67317948
vn 0.49332564 0.84165716 -0.21964297
vn 0.69235561 0.70638958 -0.14716477
vn 0.47336833 -0.32200778 -0.81989842
vn 0.92604824 0.32200866 -0.19683768
vn 0.36324667 0.83982085 -0.40342631
vn 0.61653454 0.38862404 -0.68473099
vn 0.36324670 0.83982082 -0.40342636
vn 0.53100053 0.83982100 0.11286774
vn 0.90126180 0.38862371 0.19156928
vn 0.74542511 -0.38862439 -0.54158332
vn 0.74721620 -0.38333306 -0.54288463
vn 0.57718655 -0.77512374 -0.25698030
vn 0.84173688 -0.38862555 0.37476554
vn 0.90126180 0.38862371 0.19156928
vn 0.84376029 -0.38333185 0.37566642
vn 0.74542511 -0.38862439 -0.54158332
vn 0.0000000e+0 -1.00000000 8.9764381e-17
vn 0.0000000e+0 -1.00000000 0.0000000e+0
vn 0.47336847 -0.32200804 0.81989824
vn 0.63349054 0.32200905 0.70356230
vn 0.94673691 -0.32200810 0.0000000e+0
vn 0.0000000e+0 -1.00000000 0.0000000e+0
vn 0.0000000e+0 -1.00000000 0.0000000e+0
vn 0.47336833 -0.32200778 -0.81989842
vn 0.92604824 0.32200866 -0.19683768
vn 0.94673691 -0.32200810 0.0000000e+0
vn 0.47362624 0.70638965 0.52601507
vn 0.43687926 0.84165702 0.31741135
vn 0.69235561 0.70638958 -0.14716477
vn 0.92604824 0.32200866 -0.19683768
vn 0.63349054 0.32200905 0.70356230
vn 0.94673691 -0.32200810 0.0000000e+0
g STL_default
usemtl default
s 1
f 1//1 22//125 2//7
f 2//9 29//163 3//13
f 3//15 33//186 6//29
f 4//17 12//66 7//34
f 5//25 9//47 8//41
f 6//31 14//77 7//36
f 7//38 19//107 1//5
f 8//43 37//210 12//68
f 9//50 20//113 13//73
f 9//52 26//147 21//120
f 10//54 23//131 11//60
f 12//70 46//261 19//109
f 13//74 36//203 8//45
f 14//80 16//90 4//22
f 15//85 17//95 10//57
f 16//93 50//284 25//143
f 17//98 27//153 18//102
f 18//103 24//138 10//59
f 18//105 38//215 35//198
f 20//116 21//122 11//64
f 23//134 45//255 28//159
f 24//140 35//199 23//135
f 25//145 54//308 26//149
f 26//151 49//279 31//176
f 27//156 39//222 38//217
f 28//160 32//181 20//118
f 29//166 59//339 33//188
f 30//172 60//345 29//168
f 31//177 34//192 15//88
f 32//184 41//233 36//205
f 34//194 39//223 17//100
f 37//214 57//328 46//263
f 38//219 52//296 44//252
f 40//231 61//349 43//247
f 42//242 51//292 34//196
f 42//243 53//303 41//237
f 43//249 55//315 50//286
f 44//253 45//257 35//202
f 45//260 52//299 47//270
f 46//265 58//333 48//275
f 47//271 51//293 41//238
f 48//276 56//322 22//130
f 49//283 54//310 53//305
f 51//295 52//301 39//226
f 53//306 57//329 36//209
f 54//314 58//336 57//331
f 55//320 61//351 56//324
f 60//348 61//354 59//343
s 2
f 2//10 30//169 29//164
f 3//14 6//28 1//3
f 4//18 16//89 5//23
f 5//26 25//141 9//48
f 7//37 14//79 4//20
f 8//42 12//67 4//21
f 9//49 13//72 8//44
f 9//51 21//119 20//114
f 10//55 24//137 23//132
f 11//61 15//83 10//56
f 12//69 19//108 7//39
f 14//81 43//245 16//91
f 15//86 34//191 17//96
f 17//97 18//101 10//58
f 17//99 39//221 27//154
f 18//104 35//197 24//139
f 19//110 22//126 1//6
f 21//123 31//174 15//87
f 22//129 56//321 30//171
f 23//133 28//158 11//65
f 26//152 54//309 49//280
f 27//155 38//216 18//106
f 29//165 33//187 3//16
f 29//167 60//344 59//340
f 31//178 42//239 34//193
f 32//183 36//204 13//76
f 32//185 47//268 41//234
f 33//189 40//228 6//33
f 34//195 51//290 39//224
f 35//200 45//256 23//136
f 36//206 37//211 8//46
f 37//213 46//262 12//71
f 38//218 44//251 35//201
f 39//225 52//297 38//220
f 41//235 51//291 42//241
f 41//236 53//302 36//208
f 43//250 61//350 55//316
f 44//254 52//298 45//258
f 45//259 47//269 28//162
f 46//264 48//274 19//112
f 47//272 52//300 51//294
f 49//282 53//304 42//244
f 50//287 54//311 25//146
f 54//313 57//330 53//307
f 55//318 56//323 48//278
f 55//319 58//337 50//289
f 56//326 61//352 60//347
f 57//332 58//338 46//266
f 59//342 61//353 40//232
s 3
f 2//8 3//12 1//2
f 5//24 8//40 4//19
f 6//30 7//35 1//4
f 11//62 21//121 15//84
f 11//63 28//157 20//115
f 16//92 25//142 5//27
f 19//111 48//273 22//127
f 20//117 32//180 13//75
f 22//128 30//170 2//11
f 25//144 26//148 9//53
f 26//150 31//175 21//124
f 28//161 47//267 32//182
f 31//179 49//281 42//240
f 33//190 59//341 40//229
f 36//207 57//327 37//212
f 40//230 43//246 14//82
f 43//248 50//285 16//94
f 48//277 58//334 55//317
f 50//288 58//335 54//312
f 56//325 60//346 30//173
s 4
f 6//32 40//227 14//78
