ply
format ascii 1.0
element vertex 121
property float x
property float y
property float z
property float nx
property float ny
property float nz
property float u
property float v
element face 180
property list uchar int vertex_indices
end_header
-1.91069e-15 0.5 2.18557e-08 -3.82137e-15 1 4.37114e-08 0 0
1.28465e-08 0.5 1.76816e-08 2.56929e-08 1 3.53633e-08 0.1 0
2.0786e-08 0.5 6.75378e-09 4.1572e-08 1 1.35076e-08 0.2 0
2.0786e-08 0.5 -6.75378e-09 4.1572e-08 1 -1.35076e-08 0.3 0
1.28465e-08 0.5 -1.76816e-08 2.56929e-08 1 -3.53633e-08 0.4 0
-1.91069e-15 0.5 -2.18557e-08 -3.82137e-15 1 -4.37114e-08 0.5 0
-1.28465e-08 0.5 -1.76816e-08 -2.56929e-08 1 -3.53633e-08 0.6 0
-2.0786e-08 0.5 -6.75378e-09 -4.1572e-08 1 -1.35076e-08 0.7 0
-2.0786e-08 0.5 6.75378e-09 -4.1572e-08 1 1.35076e-08 0.8 0
-1.28464e-08 0.5 1.76816e-08 -2.56929e-08 1 3.53633e-08 0.9 0
1.91069e-15 0.5 2.18557e-08 3.82137e-15 1 4.37114e-08 1 0
1.35076e-08 0.475528 -0.154508 2.70151e-08 0.951057 -0.309017 0 0.1
-0.0908178 0.475528 -0.125 -0.181636 0.951057 -0.25 0.1 0.1
-0.146946 0.475528 -0.0477457 -0.293893 0.951057 -0.0954915 0.2 0.1
-0.146946 0.475528 0.0477458 -0.293893 0.951057 0.0954915 0.3 0.1
-0.0908178 0.475528 0.125 -0.181636 0.951057 0.25 0.4 0.1
1.35076e-08 0.475528 0.154508 2.70151e-08 0.951057 0.309017 0.5 0.1
0.0908178 0.475528 0.125 0.181636 0.951057 0.25 0.6 0.1
0.146946 0.475528 0.0477458 0.293893 0.951057 0.0954915 0.7 0.1
0.146946 0.475528 -0.0477458 0.293893 0.951057 -0.0954915 0.8 0.1
0.0908178 0.475528 -0.125 0.181636 0.951057 -0.25 0.9 0.1
-1.35076e-08 0.475528 -0.154508 -2.70151e-08 0.951057 -0.309017 1 0.1
2.56929e-08 0.404509 -0.293893 5.13858e-08 0.809017 -0.587785 0 0.2
-0.172746 0.404509 -0.237764 -0.345491 0.809017 -0.475528 0.1 0.2
-0.279509 0.404509 -0.0908178 -0.559017 0.809017 -0.181636 0.2 0.2
-0.279509 0.404509 0.0908178 -0.559017 0.809017 0.181636 0.3 0.2
-0.172746 0.404509 0.237764 -0.345492 0.809017 0.475528 0.4 0.2
2.56929e-08 0.404509 0.293893 5.13858e-08 0.809017 0.587785 0.5 0.2
0.172746 0.404509 0.237764 0.345492 0.809017 0.475528 0.6 0.2
0.279509 0.404509 0.0908178 0.559017 0.809017 0.181636 0.7 0.2
0.279509 0.404509 -0.0908179 0.559017 0.809017 -0.181636 0.8 0.2
0.172746 0.404509 -0.237764 0.345491 0.809017 -0.475528 0.9 0.2
-2.56929e-08 0.404509 -0.293893 -5.13858e-08 0.809017 -0.587785 1 0.2
3.53633e-08 0.293893 -0.404509 7.07265e-08 0.587785 -0.809017 0 0.3
-0.237764 0.293893 -0.327254 -0.475528 0.587785 -0.654509 0.1 0.3
-0.38471 0.293893 -0.125 -0.769421 0.587785 -0.25 0.2 0.3
-0.38471 0.293893 0.125 -0.769421 0.587785 0.25 0.3 0.3
-0.237764 0.293893 0.327254 -0.475528 0.587785 0.654509 0.4 0.3
3.53633e-08 0.293893 0.404509 7.07265e-08 0.587785 0.809017 0.5 0.3
0.237764 0.293893 0.327254 0.475528 0.587785 0.654508 0.6 0.3
0.38471 0.293893 0.125 0.769421 0.587785 0.25 0.7 0.3
0.38471 0.293893 -0.125 0.769421 0.587785 -0.25 0.8 0.3
0.237764 0.293893 -0.327254 0.475528 0.587785 -0.654509 0.9 0.3
-3.53633e-08 0.293893 -0.404509 -7.07265e-08 0.587785 -0.809017 1 0.3
4.1572e-08 0.154508 -0.475528 8.3144e-08 0.309017 -0.951057 0 0.4
-0.279508 0.154508 -0.38471 -0.559017 0.309017 -0.769421 0.1 0.4
-0.452254 0.154508 -0.146946 -0.904509 0.309017 -0.293893 0.2 0.4
-0.452254 0.154508 0.146946 -0.904508 0.309017 0.293893 0.3 0.4
-0.279509 0.154508 0.38471 -0.559017 0.309017 0.769421 0.4 0.4
4.1572e-08 0.154508 0.475528 8.3144e-08 0.309017 0.951057 0.5 0.4
0.279509 0.154508 0.38471 0.559017 0.309017 0.769421 0.6 0.4
0.452254 0.154508 0.146946 0.904508 0.309017 0.293893 0.7 0.4
0.452254 0.154508 -0.146946 0.904508 0.309017 -0.293893 0.8 0.4
0.279508 0.154508 -0.384711 0.559017 0.309017 -0.769421 0.9 0.4
-4.1572e-08 0.154508 -0.475528 -8.3144e-08 0.309017 -0.951057 1 0.4
4.37114e-08 -2.18557e-08 -0.5 8.74228e-08 -4.37114e-08 -1 0 0.5
-0.293893 -2.18557e-08 -0.404509 -0.587785 -4.37114e-08 -0.809017 0.1 0.5
-0.475528 -2.18557e-08 -0.154508 -0.951057 -4.37114e-08 -0.309017 0.2 0.5
-0.475528 -2.18557e-08 0.154509 -0.951056 -4.37114e-08 0.309017 0.3 0.5
-0.293893 -2.18557e-08 0.404509 -0.587785 -4.37114e-08 0.809017 0.4 0.5
4.37114e-08 -2.18557e-08 0.5 8.74228e-08 -4.37114e-08 1 0.5 0.5
0.293893 -2.18557e-08 0.404508 0.587785 -4.37114e-08 0.809017 0.6 0.5
0.475528 -2.18557e-08 0.154509 0.951056 -4.37114e-08 0.309017 0.7 0.5
0.475528 -2.18557e-08 -0.154509 0.951056 -4.37114e-08 -0.309017 0.8 0.5
0.293893 -2.18557e-08 -0.404509 0.587785 -4.37114e-08 -0.809017 0.9 0.5
-4.37114e-08 -2.18557e-08 -0.5 -8.74228e-08 -4.37114e-08 -1 1 0.5
4.1572e-08 -0.154509 -0.475528 8.3144e-08 -0.309017 -0.951056 0 0.6
-0.279508 -0.154509 -0.38471 -0.559017 -0.309017 -0.769421 0.1 0.6
-0.452254 -0.154509 -0.146946 -0.904508 -0.309017 -0.293893 0.2 0.6
-0.452254 -0.154509 0.146946 -0.904508 -0.309017 0.293893 0.3 0.6
-0.279508 -0.154509 0.38471 -0.559017 -0.309017 0.769421 0.4 0.6
4.1572e-08 -0.154509 0.475528 8.3144e-08 -0.309017 0.951056 0.5 0.6
0.279509 -0.154509 0.38471 0.559017 -0.309017 0.769421 0.6 0.6
0.452254 -0.154509 0.146946 0.904508 -0.309017 0.293893 0.7 0.6
0.452254 -0.154509 -0.146946 0.904508 -0.309017 -0.293893 0.8 0.6
0.279508 -0.154509 -0.384711 0.559017 -0.309017 -0.769421 0.9 0.6
-4.1572e-08 -0.154509 -0.475528 -8.3144e-08 -0.309017 -0.951056 1 0.6
3.53633e-08 -0.293893 -0.404509 7.07265e-08 -0.587785 -0.809017 0 0.7
-0.237764 -0.293893 -0.327254 -0.475528 -0.587785 -0.654509 0.1 0.7
-0.38471 -0.293893 -0.125 -0.769421 -0.587785 -0.25 0.2 0.7
-0.38471 -0.293893 0.125 -0.769421 -0.587785 0.25 0.3 0.7
-0.237764 -0.293893 0.327254 -0.475528 -0.587785 0.654509 0.4 0.7
3.53633e-08 -0.293893 0.404509 7.07265e-08 -0.587785 0.809017 0.5 0.7
0.237764 -0.293893 0.327254 0.475528 -0.587785 0.654508 0.6 0.7
0.38471 -0.293893 0.125 0.769421 -0.587785 0.25 0.7 0.7
0.38471 -0.293893 -0.125 0.769421 -0.587785 -0.25 0.8 0.7
0.237764 -0.293893 -0.327254 0.475528 -0.587785 -0.654509 0.9 0.7
-3.53633e-08 -0.293893 -0.404509 -7.07265e-08 -0.587785 -0.809017 1 0.7
2.56929e-08 -0.404509 -0.293893 5.13858e-08 -0.809017 -0.587785 0 0.8
-0.172746 -0.404509 -0.237764 -0.345491 -0.809017 -0.475528 0.1 0.8
-0.279508 -0.404509 -0.0908178 -0.559017 -0.809017 -0.181636 0.2 0.8
-0.279508 -0.404509 0.0908178 -0.559017 -0.809017 0.181636 0.3 0.8
-0.172746 -0.404509 0.237764 -0.345491 -0.809017 0.475528 0.4 0.8
2.56929e-08 -0.404509 0.293893 5.13858e-08 -0.809017 0.587785 0.5 0.8
0.172746 -0.404509 0.237764 0.345491 -0.809017 0.475528 0.6 0.8
0.279508 -0.404509 0.0908178 0.559017 -0.809017 0.181636 0.7 0.8
0.279508 -0.404509 -0.0908179 0.559017 -0.809017 -0.181636 0.8 0.8
0.172746 -0.404509 -0.237764 0.345491 -0.809017 -0.475528 0.9 0.8
-2.56929e-08 -0.404509 -0.293893 -5.13858e-08 -0.809017 -0.587785 1 0.8
1.35076e-08 -0.475528 -0.154508 2.70151e-08 -0.951057 -0.309017 0 0.9
-0.0908178 -0.475528 -0.125 -0.181636 -0.951057 -0.25 0.1 0.9
-0.146946 -0.475528 -0.0477457 -0.293893 -0.951057 -0.0954914 0.2 0.9
-0.146946 -0.475528 0.0477457 -0.293892 -0.951057 0.0954915 0.3 0.9
-0.0908178 -0.475528 0.125 -0.181636 -0.951057 0.25 0.4 0.9
1.35076e-08 -0.475528 0.154508 2.70151e-08 -0.951057 0.309017 0.5 0.9
0.0908178 -0.475528 0.125 0.181636 -0.951057 0.25 0.6 0.9
0.146946 -0.475528 0.0477457 0.293892 -0.951057 0.0954915 0.7 0.9
0.146946 -0.475528 -0.0477458 0.293892 -0.951057 -0.0954915 0.8 0.9
0.0908177 -0.475528 -0.125 0.181635 -0.951057 -0.25 0.9 0.9
-1.35076e-08 -0.475528 -0.154508 -2.70151e-08 -0.951057 -0.309017 1 0.9
-1.91069e-15 -0.5 2.18557e-08 -3.82137e-15 -1 4.37114e-08 0 1
1.28465e-08 -0.5 1.76816e-08 2.56929e-08 -1 3.53633e-08 0.1 1
2.0786e-08 -0.5 6.75378e-09 4.1572e-08 -1 1.35076e-08 0.2 1
2.0786e-08 -0.5 -6.75378e-09 4.1572e-08 -1 -1.35076e-08 0.3 1
1.28465e-08 -0.5 -1.76816e-08 2.56929e-08 -1 -3.53633e-08 0.4 1
-1.91069e-15 -0.5 -2.18557e-08 -3.82137e-15 -1 -4.37114e-08 0.5 1
-1.28465e-08 -0.5 -1.76816e-08 -2.56929e-08 -1 -3.53633e-08 0.6 1
-2.0786e-08 -0.5 -6.75378e-09 -4.1572e-08 -1 -1.35076e-08 0.7 1
-2.0786e-08 -0.5 6.75378e-09 -4.1572e-08 -1 1.35076e-08 0.8 1
-1.28464e-08 -0.5 1.76816e-08 -2.56929e-08 -1 3.53633e-08 0.9 1
1.91069e-15 -0.5 2.18557e-08 3.82137e-15 -1 4.37114e-08 1 1
3 1 11 12
3 2 12 13
3 3 13 14
3 4 14 15
3 5 15 16
3 6 16 17
3 7 17 18
3 8 18 19
3 9 19 20
3 10 20 21
3 11 22 12
3 12 22 23
3 12 23 13
3 13 23 24
3 13 24 14
3 14 24 25
3 14 25 15
3 15 25 26
3 15 26 16
3 16 26 27
3 16 27 17
3 17 27 28
3 17 28 18
3 18 28 29
3 18 29 19
3 19 29 30
3 19 30 20
3 20 30 31
3 20 31 21
3 21 31 32
3 22 33 23
3 23 33 34
3 23 34 24
3 24 34 35
3 24 35 25
3 25 35 36
3 25 36 26
3 26 36 37
3 26 37 27
3 27 37 38
3 27 38 28
3 28 38 39
3 28 39 29
3 29 39 40
3 29 40 30
3 30 40 41
3 30 41 31
3 31 41 42
3 31 42 32
3 32 42 43
3 33 44 34
3 34 44 45
3 34 45 35
3 35 45 46
3 35 46 36
3 36 46 47
3 36 47 37
3 37 47 48
3 37 48 38
3 38 48 49
3 38 49 39
3 39 49 50
3 39 50 40
3 40 50 51
3 40 51 41
3 41 51 52
3 41 52 42
3 42 52 53
3 42 53 43
3 43 53 54
3 44 55 45
3 45 55 56
3 45 56 46
3 46 56 57
3 46 57 47
3 47 57 58
3 47 58 48
3 48 58 59
3 48 59 49
3 49 59 60
3 49 60 50
3 50 60 61
3 50 61 51
3 51 61 62
3 51 62 52
3 52 62 63
3 52 63 53
3 53 63 64
3 53 64 54
3 54 64 65
3 55 66 56
3 56 66 67
3 56 67 57
3 57 67 68
3 57 68 58
3 58 68 69
3 58 69 59
3 59 69 70
3 59 70 60
3 60 70 71
3 60 71 61
3 61 71 72
3 61 72 62
3 62 72 73
3 62 73 63
3 63 73 74
3 63 74 64
3 64 74 75
3 64 75 65
3 65 75 76
3 66 77 67
3 67 77 78
3 67 78 68
3 68 78 79
3 68 79 69
3 69 79 80
3 69 80 70
3 70 80 81
3 70 81 71
3 71 81 82
3 71 82 72
3 72 82 83
3 72 83 73
3 73 83 84
3 73 84 74
3 74 84 85
3 74 85 75
3 75 85 86
3 75 86 76
3 76 86 87
3 77 88 78
3 78 88 89
3 78 89 79
3 79 89 90
3 79 90 80
3 80 90 91
3 80 91 81
3 81 91 92
3 81 92 82
3 82 92 93
3 82 93 83
3 83 93 94
3 83 94 84
3 84 94 95
3 84 95 85
3 85 95 96
3 85 96 86
3 86 96 97
3 86 97 87
3 87 97 98
3 88 99 89
3 89 99 100
3 89 100 90
3 90 100 101
3 90 101 91
3 91 101 102
3 91 102 92
3 92 102 103
3 92 103 93
3 93 103 104
3 93 104 94
3 94 104 105
3 94 105 95
3 95 105 106
3 95 106 96
3 96 106 107
3 96 107 97
3 97 107 108
3 97 108 98
3 98 108 109
3 99 110 100
3 100 111 101
3 101 112 102
3 102 113 103
3 103 114 104
3 104 115 105
3 105 116 106
3 106 117 107
3 107 118 108
3 108 119 109
